<svg width="24" height="24" viewBox="0 0 24 24" fill="none" xmlns="http://www.w3.org/2000/svg">
<rect x="0.157104" y="4.1571" width="23.6858" height="15.6858" rx="1.09973" fill="#006FCF" stroke="#909090" stroke-width="0.314208"/>
<path d="M9.18115 13.0635L9.60791 12.5586H23.6118V15.7344C23.6026 15.7402 23.2407 15.9662 22.8228 15.9697H15.0679L14.6011 15.4316V15.9697H13.0718V15.0518C13.0633 15.0568 12.8539 15.1797 12.4116 15.1797H11.8911V15.9697H9.57568L9.1626 15.4541L8.74268 15.9697H4.90869V12.5586H8.76709L9.18115 13.0635ZM13.5054 15.5332H14.186V14.625H14.4722L15.2886 15.5332H16.1196L15.2251 14.5918C15.5921 14.5623 15.9709 14.2664 15.9712 13.8076C15.9712 13.2703 15.5215 12.9788 15.02 12.9785H13.5054V15.5332ZM5.37451 15.5322H7.59521V14.9775H6.06201V14.5244H7.55908V13.9863H6.06201V13.5498H7.59521V12.9775H5.37451V15.5322ZM8.76221 14.2705L7.68115 15.5322H8.52588L9.15088 14.7461L9.79053 15.5322H10.6479L9.56494 14.2549L10.6577 12.9775H9.8335L9.17236 13.7773L8.51318 12.9775H7.65576L8.76221 14.2705ZM10.729 15.5322H11.4272V14.7256H12.144C12.75 14.7255 13.2094 14.4235 13.2095 13.8369C13.2094 13.3508 12.8487 12.9775 12.2319 12.9775H10.729V15.5322ZM16.2554 15.5322H18.4761V14.9775H16.9438V14.5244H18.4331V13.9863H16.9438V13.5498H18.4761V12.9775H16.2554V15.5322ZM19.7729 12.9775C18.9783 12.9776 18.7057 13.3728 18.7056 13.7822C18.7056 14.2414 19.0036 14.5479 19.5386 14.5479H20.1538C20.3555 14.5479 20.4429 14.6563 20.4429 14.7637C20.4428 14.8757 20.3551 14.9775 20.1538 14.9775H18.7915V15.5322H20.2417C20.8408 15.5322 21.1293 15.1665 21.1294 14.7197C21.1294 14.3041 20.871 13.9865 20.2749 13.9863H19.6294C19.4623 13.9861 19.3794 13.8695 19.3794 13.7637C19.3794 13.6607 19.4465 13.5528 19.6655 13.5527H20.812L21.0981 12.9775H19.7729ZM22.1714 12.9775C21.3766 12.9775 21.1032 13.3728 21.103 13.7822C21.103 14.2414 21.4011 14.5478 21.936 14.5479H22.5513C22.7531 14.5479 22.8403 14.6563 22.8403 14.7637C22.8402 14.8757 22.7527 14.9775 22.5513 14.9775H21.1899V15.5322H22.6401C23.2391 15.5322 23.5277 15.1664 23.5278 14.7197C23.5278 14.304 23.2687 13.9863 22.6724 13.9863H22.0278C21.8605 13.9863 21.7769 13.8695 21.7769 13.7637C21.7769 13.6606 21.8449 13.5527 22.064 13.5527H23.2095L23.4966 12.9775H22.1714ZM12.1821 13.5547C12.3777 13.5548 12.518 13.6683 12.5181 13.8496C12.5178 14.0199 12.3778 14.1436 12.1792 14.1436H11.4272V13.5547H12.1821ZM14.9634 13.5498C15.1495 13.55 15.2863 13.6867 15.2866 13.8184C15.2865 13.9876 15.1104 14.0875 14.9741 14.0879H14.186V13.5498H14.9634ZM3.27588 9.15137V8.08789H5.14111L5.43506 8.85645L5.71924 8.08789H14.0962V8.47461C14.1012 8.47023 14.5407 8.08789 15.2603 8.08789L17.978 8.09668L18.4624 9.14648V8.08789H20.0239L20.4536 8.69141V8.08789H22.0298V11.499H20.4536L20.0415 10.8945V11.499H17.7476L17.5161 10.9619H16.8999L16.6724 11.499H15.1167C14.5043 11.499 14.1091 11.1332 14.0962 11.1211V11.499H11.7495L11.2847 10.9619V11.499H2.56006L2.32959 10.9619H1.71533L1.48584 11.499H0.413574V9.9873L1.28174 8.08789H2.78271L3.27588 9.15137ZM0.418457 11.0625H1.18115L1.39697 10.5508H2.65283L2.86768 11.0625H3.64697L2.47705 8.50781H1.58936L0.418457 11.0625ZM5.43994 10.1592L4.81006 8.51172L3.72705 8.50781V11.0625H4.40771V9.18066L5.13037 11.0625H5.72705L6.44873 9.18066V11.0625H7.12939V8.50781H6.05518L5.43994 10.1592ZM7.59521 11.0625H9.81592V10.5078H8.28271V10.0537H9.77979V9.5166H8.28271V9.0791H9.81592V8.50781H7.59521V11.0625ZM10.2095 11.0625H10.8901V10.1543H11.1763L11.9927 11.0625H12.8237L11.9292 10.1211C12.2964 10.0918 12.6751 9.796 12.6753 9.33691C12.6752 8.79956 12.2258 8.5079 11.7241 8.50781H10.2095V11.0625ZM12.9536 11.0625H13.6479V8.50781H12.9536V11.0625ZM15.3315 8.50781C14.4152 8.50787 13.98 9.04771 13.98 9.7959C13.98 10.526 14.4203 11.0625 15.146 11.0625H15.2954L15.5825 10.5049H15.4028C14.9697 10.5047 14.6694 10.2963 14.6694 9.80176C14.6696 9.38537 14.9323 9.11328 15.3042 9.11328H16.0835V8.50781H15.3315ZM15.606 11.0625H16.3687L16.5845 10.5508H17.8403L18.0552 11.0625H18.8345L17.6646 8.50781H16.7769L15.606 11.0625ZM18.9136 11.0625H19.5942V9.41602L20.7271 11.0625H21.564V8.50781H20.8833V10.1133L19.7788 8.50781H18.9136V11.0625ZM2.40479 9.99609H1.63818L2.02197 9.10254L2.40479 9.99609ZM17.5923 9.99609H16.8257L17.2095 9.10254L17.5923 9.99609ZM11.6675 9.0791C11.8538 9.0791 11.9903 9.21594 11.9907 9.34766C11.9907 9.51726 11.8146 9.61707 11.6782 9.61719H10.8901V9.0791H11.6675Z" fill="white"/>
</svg>
