<svg width="24" height="24" viewBox="0 0 24 24" fill="none" xmlns="http://www.w3.org/2000/svg">
<path d="M23.9844 4.93984C23.9511 4.70637 23.842 4.48995 23.6735 4.32322C23.505 4.15648 23.2863 4.04848 23.0504 4.0155L23.0348 4H0.96519L0.94962 4.0155C0.7137 4.04847 0.49501 4.15647 0.326534 4.3232C0.158058 4.48994 0.0489335 4.70636 0.0156183 4.93984L0 4.95525V19.0447L0.0156183 19.0603C0.0489335 19.2937 0.158058 19.5102 0.326534 19.6769C0.49501 19.8436 0.7137 19.9516 0.94962 19.9846L0.96519 20H23.0347L23.0504 19.9845C23.2863 19.9516 23.505 19.8436 23.6735 19.6768C23.8419 19.5101 23.951 19.2937 23.9843 19.0602L24 19.0447V4.95525L23.9844 4.93984Z" fill="#CCCCCC"/>
<path d="M0 6H24V10H0V6Z" fill="#4B4B4B"/>
<path d="M20.9836 14H3.01637C1.90275 14 1 14.8954 1 16C1 17.1046 1.90275 18 3.01637 18H20.9836C22.0972 18 23 17.1046 23 16C23 14.8954 22.0972 14 20.9836 14Z" fill="white"/>
<path d="M14.7037 17C14.6702 17 14.6373 16.9993 14.6051 16.998C14.2045 16.9813 13.9458 16.8651 13.7786 16.7229C13.2092 16.9824 12.5279 17.0876 12.2417 16.8437C12.1336 16.7516 11.9904 16.5402 12.2458 16.1588C12.4527 15.8497 12.5007 15.5868 12.365 15.5045C12.2009 15.4049 11.7896 15.5003 11.5187 15.8761C11.3048 16.1728 10.9171 16.4638 10.4817 16.6544C10.2572 16.7527 9.69552 16.9603 9.32904 16.7653C9.13935 16.6644 8.87525 16.3884 9.23796 15.673C9.28211 15.5859 9.28193 15.5404 9.2784 15.5312C9.20864 15.4553 8.6243 15.4778 8.00667 15.8021C7.61321 16.0087 7.39711 16.25 7.45611 16.4169C7.47381 16.469 7.4688 16.5255 7.44218 16.5742C7.41555 16.6229 7.36945 16.6599 7.31388 16.677C7.25831 16.6942 7.19774 16.6901 7.14531 16.6659C7.09288 16.6416 7.05281 16.5989 7.0338 16.5472C6.91322 16.2061 7.11761 15.8494 7.6093 15.5426C8.15379 15.2028 9.16491 14.8916 9.5689 15.2175C9.67284 15.3013 9.82025 15.495 9.63987 15.8508C9.49614 16.1343 9.45967 16.3567 9.54909 16.4042C9.80703 16.5416 10.7634 16.1801 11.1498 15.644C11.3313 15.3922 11.5825 15.2032 11.8571 15.1118C12.1349 15.0192 12.4083 15.0353 12.6072 15.156C12.8942 15.33 13.0489 15.7427 12.6229 16.3791C12.5593 16.474 12.5497 16.5246 12.5485 16.5418C12.6464 16.6036 13.0856 16.5647 13.53 16.3746C13.4439 16.1529 13.4438 15.8848 13.5318 15.6265C13.6247 15.3539 13.7976 15.1378 13.9945 15.0484C14.305 14.9073 14.5468 15.0994 14.6596 15.3066C14.8722 15.6975 14.7132 16.1215 14.2232 16.4701C14.2137 16.4769 14.204 16.4837 14.1942 16.4904C14.7953 16.7911 16.118 16.3063 16.6875 16.0705C16.7415 16.0482 16.8027 16.0468 16.8577 16.0666C16.9127 16.0865 16.957 16.1259 16.9809 16.1763C17.0048 16.2267 17.0063 16.2838 16.9851 16.3352C16.9639 16.3866 16.9216 16.4281 16.8677 16.4504C15.9859 16.8154 15.2587 17 14.7037 17ZM14.2017 15.4173C14.1622 15.4242 14.0415 15.521 13.9641 15.7286C13.9157 15.8583 13.8918 16.0162 13.9252 16.1596C13.9359 16.1522 13.9466 16.1448 13.9572 16.1371C14.1725 15.9833 14.4002 15.7469 14.2631 15.4949C14.2326 15.4388 14.2086 15.4214 14.2017 15.4173Z" fill="#4B4B4B"/>
</svg>
