<svg width="24" height="24" viewBox="0 0 24 24" fill="none" xmlns="http://www.w3.org/2000/svg">
<rect x="0.151686" y="4.15169" width="23.6966" height="15.6966" rx="1.06181" fill="white" stroke="#909090" stroke-width="0.303373"/>
<path fill-rule="evenodd" clip-rule="evenodd" d="M16.0719 12.241H16.082H16.1014H16.1208H16.1403H16.1597H16.1791H16.1986H16.218H16.2374H16.2569H16.2763H16.2957H16.3152H16.3346H16.354H16.3735H16.3929H16.4123H16.4318H16.4512H16.4706H16.49H16.5095H16.5289H16.5483H16.5678H16.5872H16.6066H16.6261H16.6455H16.6649H16.6844H16.7038H16.7232H16.7427H16.7621H16.7815H16.801H16.8204H16.8398H16.8593H16.8787H16.8981H16.9175H16.937H16.9564H16.9758H16.9953H17.0147H17.0341H17.0536H17.073H17.0924H17.1119H17.1313H17.1507H17.1701H17.1896H17.209H17.2284H17.2446L17.2479 12.2411C17.2539 12.2412 17.2604 12.2415 17.2673 12.2419C17.2735 12.2422 17.2801 12.2426 17.2867 12.2431C17.2931 12.2436 17.2997 12.2441 17.3062 12.2447C17.3127 12.2453 17.3192 12.246 17.3256 12.2467C17.3323 12.2474 17.3388 12.2482 17.345 12.249C17.352 12.25 17.3585 12.2509 17.3645 12.2519C17.3687 12.2527 17.3727 12.2534 17.3762 12.2541L17.3839 12.2559C17.3904 12.2574 17.3969 12.259 17.4033 12.2608C17.4098 12.2626 17.4163 12.2645 17.4228 12.2665C17.4293 12.2686 17.4358 12.2708 17.4422 12.2731C17.4487 12.2754 17.4552 12.2779 17.4616 12.2805C17.4682 12.2832 17.4746 12.286 17.4811 12.2889C17.4876 12.2919 17.4941 12.2949 17.5005 12.2982C17.507 12.3015 17.5135 12.3049 17.5199 12.3085C17.5265 12.3122 17.533 12.316 17.5394 12.32C17.5459 12.324 17.5524 12.3282 17.5588 12.3326C17.5653 12.3371 17.5718 12.3417 17.5782 12.3464C17.5848 12.3514 17.5913 12.3565 17.5976 12.3617C17.6042 12.3672 17.6107 12.3729 17.6171 12.3786C17.6237 12.3847 17.6302 12.3909 17.6365 12.3973C17.6432 12.404 17.6496 12.411 17.6559 12.4181C17.6626 12.4257 17.6691 12.4334 17.6754 12.4414C17.6821 12.45 17.6886 12.4588 17.6948 12.4679C17.7016 12.4778 17.7081 12.488 17.7142 12.4984C17.7212 12.5102 17.7276 12.5223 17.7337 12.5348C17.7408 12.5495 17.7473 12.5647 17.7531 12.5803C17.7609 12.6014 17.7674 12.6231 17.7725 12.6456C17.7814 12.6845 17.7862 12.7256 17.7862 12.7684C17.7862 12.8115 17.7814 12.8527 17.7725 12.8918C17.7674 12.9143 17.7609 12.9361 17.7531 12.9572C17.7473 12.9728 17.7408 12.9881 17.7337 13.0029C17.7276 13.0153 17.7212 13.0274 17.7142 13.0392C17.7081 13.0497 17.7016 13.0599 17.6948 13.0698C17.6886 13.0788 17.6821 13.0877 17.6754 13.0963C17.6691 13.1042 17.6626 13.112 17.6559 13.1196C17.6496 13.1267 17.6432 13.1336 17.6365 13.1404C17.6302 13.1468 17.6237 13.153 17.6171 13.159C17.6107 13.1648 17.6042 13.1704 17.5976 13.1758C17.5913 13.1811 17.5848 13.1862 17.5782 13.1911C17.5718 13.1959 17.5653 13.2004 17.5588 13.2049C17.5524 13.2092 17.5459 13.2134 17.5394 13.2174C17.533 13.2214 17.5265 13.2252 17.5199 13.2288C17.5135 13.2324 17.507 13.2358 17.5005 13.2391C17.4941 13.2423 17.4876 13.2454 17.4811 13.2484C17.4746 13.2513 17.4682 13.254 17.4616 13.2567C17.4552 13.2592 17.4487 13.2617 17.4422 13.264C17.4358 13.2663 17.4293 13.2685 17.4228 13.2705C17.4163 13.2725 17.4098 13.2744 17.4033 13.2762C17.3969 13.2779 17.3904 13.2795 17.3839 13.281L17.3762 13.2827C17.3727 13.2835 17.3687 13.2843 17.3645 13.285C17.3585 13.2861 17.352 13.2871 17.345 13.288C17.3388 13.2888 17.3323 13.2896 17.3256 13.2904C17.3192 13.2911 17.3127 13.2917 17.3062 13.2923C17.2997 13.2929 17.2931 13.2934 17.2867 13.2939C17.2801 13.2943 17.2735 13.2948 17.2673 13.2951C17.2604 13.2954 17.2539 13.2957 17.2479 13.2958L17.2375 13.296H17.2284H17.209H17.1896H17.1701H17.1507H17.1313H17.1119H17.0924H17.073H17.0536H17.0341H17.0147H16.9953H16.9758H16.9564H16.937H16.9175H16.8981H16.8787H16.8593H16.8398H16.8204H16.801H16.7815H16.7621H16.7427H16.7232H16.7038H16.6844H16.6649H16.6455H16.6261H16.6066H16.5872H16.5678H16.5483H16.5289H16.5095H16.49H16.4706H16.4512H16.4318H16.4123H16.3929H16.3735H16.354H16.3346H16.3152H16.2957H16.2763H16.2569H16.2374H16.218H16.1986H16.1791H16.1597H16.1403H16.1208H16.1014H16.082H16.0719V12.241ZM17.6366 11.0522C17.6444 11.0876 17.6486 11.1251 17.6486 11.1646C17.6486 11.204 17.6444 11.2415 17.6366 11.2769C17.6316 11.2996 17.625 11.3215 17.6171 11.3424C17.6114 11.3577 17.6049 11.3725 17.5977 11.3868C17.5917 11.3988 17.5852 11.4104 17.5783 11.4217C17.5721 11.4316 17.5656 11.4413 17.5588 11.4506C17.5526 11.4592 17.5461 11.4675 17.5394 11.4755C17.5331 11.483 17.5267 11.4903 17.52 11.4973C17.5137 11.5039 17.5072 11.5104 17.5006 11.5166C17.4942 11.5225 17.4878 11.5282 17.4811 11.5338C17.4748 11.5391 17.4683 11.5442 17.4617 11.5492C17.4553 11.554 17.4489 11.5586 17.4423 11.5631C17.4359 11.5674 17.4294 11.5716 17.4228 11.5756C17.4164 11.5795 17.41 11.5833 17.4034 11.5869C17.397 11.5904 17.3905 11.5938 17.384 11.597C17.3776 11.6002 17.3711 11.6032 17.3645 11.6061C17.3581 11.6089 17.3516 11.6116 17.3451 11.6142C17.3387 11.6167 17.3322 11.6191 17.3257 11.6213C17.3193 11.6235 17.3128 11.6256 17.3063 11.6276C17.2998 11.6295 17.2933 11.6314 17.2868 11.633C17.2804 11.6347 17.2739 11.6362 17.2674 11.6376C17.261 11.6391 17.2545 11.6403 17.248 11.6415L17.2432 11.6423C17.2395 11.643 17.2344 11.6437 17.2285 11.6444C17.2228 11.6451 17.2162 11.6459 17.2091 11.6466C17.2029 11.6472 17.1964 11.6478 17.1897 11.6484C17.1833 11.6489 17.1768 11.6494 17.1702 11.6498C17.1637 11.6502 17.1572 11.6506 17.1508 11.6508C17.1441 11.6511 17.1375 11.6513 17.1314 11.6513L17.1283 11.6513H17.112H17.0925H17.0731H17.0537H17.0342H17.0148H16.9954H16.9759H16.9565H16.9371H16.9176H16.8982H16.8788H16.8594H16.8399H16.8205H16.8011H16.7816H16.7622H16.7428H16.7233H16.7039H16.6845H16.665H16.6456H16.6262H16.6067H16.5873H16.5679H16.5485H16.529H16.5096H16.4902H16.4707H16.4513H16.4319H16.4124H16.393H16.3736H16.3541H16.3347H16.3153H16.2959H16.2764H16.257H16.2376H16.2181H16.1987H16.1793H16.1598H16.1404H16.121H16.1015H16.0821H16.0719V10.6778H16.0821H16.1015H16.121H16.1404H16.1598H16.1793H16.1987H16.2181H16.2376H16.257H16.2764H16.2959H16.3153H16.3347H16.3541H16.3736H16.393H16.4124H16.4319H16.4513H16.4707H16.4902H16.5096H16.529H16.5485H16.5679H16.5873H16.6067H16.6262H16.6456H16.665H16.6845H16.7039H16.7233H16.7428H16.7622H16.7816H16.8011H16.8205H16.8399H16.8594H16.8788H16.8982H16.9176H16.9371H16.9565H16.9759H16.9954H17.0148H17.0342H17.0537H17.0731H17.0925H17.112H17.1314H17.1396L17.1508 10.6782C17.1572 10.6784 17.1637 10.6788 17.1702 10.6792C17.1768 10.6796 17.1833 10.6801 17.1897 10.6806C17.1964 10.6812 17.2029 10.6818 17.2091 10.6824C17.2162 10.6831 17.2228 10.6838 17.2285 10.6844C17.2344 10.6851 17.2395 10.6857 17.2432 10.6863L17.248 10.6871C17.2545 10.6883 17.261 10.6896 17.2674 10.691C17.2739 10.6924 17.2804 10.694 17.2868 10.6956C17.2933 10.6974 17.2998 10.6992 17.3063 10.7011C17.3128 10.7031 17.3193 10.7052 17.3257 10.7074C17.3322 10.7097 17.3387 10.7121 17.3451 10.7146C17.3516 10.7172 17.3581 10.7199 17.3645 10.7228C17.3711 10.7257 17.3776 10.7287 17.384 10.7319C17.3905 10.7351 17.397 10.7385 17.4034 10.742C17.41 10.7456 17.4164 10.7494 17.4228 10.7533C17.4294 10.7573 17.4359 10.7615 17.4423 10.7658C17.4489 10.7703 17.4553 10.7749 17.4617 10.7797C17.4683 10.7847 17.4748 10.7898 17.4811 10.7952C17.4878 10.8007 17.4942 10.8065 17.5006 10.8124C17.5072 10.8186 17.5137 10.825 17.52 10.8316C17.5267 10.8387 17.5331 10.846 17.5394 10.8535C17.5461 10.8615 17.5526 10.8698 17.5588 10.8783C17.5656 10.8877 17.5721 10.8974 17.5783 10.9073C17.5852 10.9186 17.5917 10.9302 17.5977 10.9422C17.6049 10.9565 17.6114 10.9713 17.6171 10.9866C17.625 11.0075 17.6316 11.0294 17.6366 11.0522ZM20.0455 6.00195H20.0535L20.0535 16.0002C20.0535 16.0599 20.0507 16.119 20.0455 16.1774C20.041 16.2288 20.0345 16.2797 20.0261 16.3299C20.0205 16.3636 20.014 16.3971 20.0067 16.4302C20.0007 16.4572 19.9943 16.4839 19.9872 16.5105C19.9812 16.5334 19.9747 16.5561 19.9678 16.5787C19.9616 16.5991 19.9552 16.6194 19.9484 16.6396C19.9422 16.6578 19.9356 16.6759 19.9289 16.6939C19.9227 16.7107 19.9162 16.7274 19.9095 16.744C19.9032 16.7595 19.8967 16.775 19.8901 16.7904C19.8838 16.8049 19.8773 16.8194 19.8706 16.8338C19.8643 16.8475 19.8578 16.8611 19.8512 16.8746C19.8448 16.8876 19.8384 16.9005 19.8318 16.9133C19.8254 16.9255 19.8189 16.9378 19.8123 16.9499C19.806 16.9615 19.7995 16.9731 19.7929 16.9846C19.7865 16.9957 19.78 17.0068 19.7735 17.0178C19.7671 17.0285 19.7606 17.0392 19.754 17.0498C19.7476 17.0601 19.7412 17.0704 19.7346 17.0806C19.7282 17.0904 19.7217 17.1002 19.7151 17.1099C19.7088 17.1194 19.7023 17.1288 19.6957 17.1381C19.6893 17.1473 19.6828 17.1565 19.6763 17.1656C19.6699 17.1745 19.6634 17.1833 19.6568 17.1921C19.6505 17.2006 19.6439 17.209 19.6374 17.2175C19.631 17.2258 19.6245 17.234 19.618 17.2422C19.6116 17.2503 19.6051 17.2583 19.5985 17.2662C19.5921 17.274 19.5856 17.2817 19.5791 17.2893C19.5727 17.2969 19.5662 17.3045 19.5597 17.312C19.5533 17.3193 19.5468 17.3265 19.5402 17.3337C19.5338 17.3409 19.5273 17.348 19.5208 17.355C19.5144 17.3619 19.5079 17.3689 19.5014 17.3757C19.495 17.3824 19.4884 17.389 19.4819 17.3957C19.4755 17.4023 19.469 17.4089 19.4625 17.4154C19.4561 17.4217 19.4496 17.428 19.4431 17.4342C19.4366 17.4405 19.4302 17.4467 19.4236 17.4528C19.4172 17.4589 19.4107 17.4648 19.4042 17.4708C19.3978 17.4767 19.3913 17.4826 19.3848 17.4884C19.3783 17.4941 19.3719 17.4998 19.3653 17.5055C19.3589 17.5111 19.3524 17.5166 19.3459 17.5221C19.3394 17.5276 19.333 17.5331 19.3265 17.5384C19.32 17.5438 19.3135 17.549 19.307 17.5542C19.3006 17.5594 19.2941 17.5646 19.2876 17.5698C19.2812 17.5748 19.2746 17.5798 19.2682 17.5847C19.2617 17.5897 19.2553 17.5946 19.2487 17.5995C19.2423 17.6043 19.2358 17.609 19.2293 17.6137C19.2228 17.6184 19.2164 17.6232 19.2098 17.6278C19.2034 17.6324 19.1969 17.6369 19.1904 17.6414C19.1839 17.6458 19.1775 17.6503 19.171 17.6547C19.1645 17.6591 19.158 17.6633 19.1516 17.6676C19.1451 17.6719 19.1386 17.6761 19.1321 17.6803C19.1257 17.6845 19.1192 17.6885 19.1127 17.6926C19.1062 17.6967 19.0997 17.7007 19.0932 17.7047C19.0868 17.7086 19.0803 17.7125 19.0738 17.7164L19.0544 17.7278C19.0479 17.7315 19.0415 17.7353 19.0349 17.7389C19.0285 17.7426 19.022 17.7462 19.0155 17.7497C19.009 17.7533 19.0026 17.7569 18.9961 17.7604C18.9896 17.7639 18.9831 17.7672 18.9766 17.7706C18.9701 17.774 18.9637 17.7775 18.9572 17.7808C18.9508 17.7841 18.9442 17.7872 18.9378 17.7904C18.9313 17.7936 18.9249 17.7968 18.9183 17.8C18.9119 17.8031 18.9054 17.8061 18.8989 17.8092L18.8795 17.8182L18.86 17.8269C18.8536 17.8298 18.8471 17.8326 18.8406 17.8354C18.8341 17.8382 18.8277 17.841 18.8212 17.8437C18.8147 17.8464 18.8082 17.849 18.8017 17.8516C18.7952 17.8543 18.7888 17.857 18.7823 17.8595C18.7758 17.8621 18.7693 17.8645 18.7629 17.867C18.7564 17.8694 18.7499 17.8719 18.7434 17.8743L18.724 17.8814C18.7175 17.8837 18.711 17.886 18.7045 17.8882C18.6981 17.8905 18.6916 17.8928 18.6851 17.895C18.6787 17.8971 18.6722 17.8992 18.6657 17.9013L18.6463 17.9075C18.6398 17.9095 18.6333 17.9115 18.6268 17.9135L18.6074 17.9192C18.6009 17.9211 18.5945 17.923 18.5879 17.9248C18.5815 17.9267 18.575 17.9283 18.5685 17.9301C18.562 17.9318 18.5556 17.9336 18.5491 17.9353L18.5296 17.9402L18.5102 17.9449L18.4908 17.9495C18.4843 17.9509 18.4778 17.9523 18.4713 17.9537C18.4649 17.9551 18.4584 17.9565 18.4519 17.9579L18.4325 17.9617L18.413 17.9654C18.4066 17.9666 18.4001 17.9679 18.3936 17.9691C18.3871 17.9702 18.3806 17.9712 18.3742 17.9723L18.3547 17.9755L18.3353 17.9784L18.3159 17.9811C18.3094 17.9819 18.3029 17.9829 18.2964 17.9838C18.29 17.9846 18.2835 17.9852 18.277 17.986C18.2705 17.9867 18.2641 17.9875 18.2576 17.9882C18.2511 17.9889 18.2446 17.9896 18.2381 17.9902C18.2317 17.9908 18.2252 17.9913 18.2187 17.9919C18.2122 17.9925 18.2057 17.9931 18.1992 17.9936C18.1928 17.9941 18.1863 17.9945 18.1798 17.995L18.1604 17.9962C18.1539 17.9966 18.1474 17.997 18.141 17.9973C18.1345 17.9977 18.128 17.9978 18.1215 17.9981L18.1021 17.9988L18.0826 17.9993C18.0762 17.9995 18.0697 17.9995 18.0632 17.9996L18.0438 17.9998L18.0398 17.9999H18.0244H18.0049H17.9855H17.966H17.9466H17.9272H17.9077H17.8883H17.8689H17.8494H17.83H17.8106H17.7911H17.7717H17.7523H17.7328H17.7134H17.694H17.6745H17.6551H17.6357H17.6162H17.5968H17.5773H17.5579H17.5385H17.5191H17.4996H17.4802H17.4607H17.4413H17.4219H17.4024H17.383H17.3636H17.3441H17.3247H17.3053H17.2858H17.2664H17.247H17.2275H17.2081H17.1887H17.1692H17.1498H17.1304H17.1109H17.0915H17.0721H17.0526H17.0332H17.0138H16.9943H16.9749H16.9554H16.936H16.9166H16.8971H16.8777H16.8583H16.8388H16.8194H16.8H16.7805H16.7611H16.7417H16.7222H16.7028H16.6834H16.6639H16.6445H16.6251H16.6056H16.5862H16.5668H16.5473H16.5279H16.5085H16.489H16.4696H16.4502H16.4307H16.4113H16.3918H16.3724H16.353H16.3335H16.3141H16.2947H16.2752H16.2558H16.2364H16.2169H16.1975H16.1781H16.1586H16.1392H16.1198H16.1003H16.0809H16.0615H16.042H16.0226H16.0032H15.9837H15.9643H15.9449H15.9254H15.906H15.8865H15.8671H15.8477H15.8283H15.8088H15.7894H15.7699H15.7505H15.7311H15.7116H15.6922H15.6728H15.6533H15.6339H15.6145H15.595H15.5756H15.5562H15.5367H15.5173H15.4979H15.4784H15.459H15.4396H15.4201H15.4007H15.3812H15.3618H15.3424H15.323H15.3035H15.2841H15.2646H15.2452H15.2258H15.2063H15.1869H15.1675H15.148H15.1286H15.0867V13.9232H15.1286H15.148H15.1675H15.1869H15.2063H15.2258H15.2452H15.2646H15.2841H15.3035H15.323H15.3424H15.3618H15.3812H15.4007H15.4201H15.4396H15.459H15.4784H15.4979H15.5173H15.5367H15.5562H15.5756H15.595H15.6145H15.6339H15.6533H15.6728H15.6922H15.7116H15.7311H15.7505H15.7699H15.7894H15.8088H15.8283H15.8477H15.8671H15.8865H15.906H15.9254H15.9449H15.9643H15.9837H16.0032H16.0226H16.042H16.0615H16.0809H16.1003H16.1198H16.1392H16.1586H16.1781H16.1975H16.2169H16.2364H16.2558H16.2752H16.2947H16.3141H16.3335H16.353H16.3724H16.3918H16.4113H16.4307H16.4502H16.4696H16.489H16.5085H16.5279H16.5473H16.5668H16.5862H16.6056H16.6251H16.6445H16.6639H16.6834H16.7028H16.7222H16.7417H16.7611H16.7805H16.8H16.8194H16.8388H16.8583H16.8777H16.8971H16.9166H16.936H16.9554H16.9749H16.9943H17.0138H17.0332H17.0526H17.0721H17.0915H17.1109H17.1304H17.1498H17.1692H17.1887H17.2081H17.2275H17.247H17.2664H17.2858H17.3053H17.3247H17.3441H17.3636H17.383H17.4024H17.4219H17.4413H17.4607H17.4802H17.4996H17.5191H17.5385H17.5579H17.5773H17.5968H17.6162H17.6357H17.6551H17.6745H17.694H17.7134H17.7328H17.7523H17.7717H17.7911H17.8106H17.83H17.8494H17.8689H17.8883H17.9077H17.9272H17.9466H17.966H17.9855H18.0049H18.0244H18.0438H18.0632H18.0826H18.1021H18.1215H18.141H18.1604H18.1798H18.1992H18.2096L18.2187 13.9231L18.2381 13.923L18.2576 13.9226C18.2641 13.9224 18.2705 13.9223 18.277 13.9221C18.2835 13.9219 18.29 13.9216 18.2964 13.9213L18.3159 13.9204L18.3353 13.9192L18.3547 13.9179L18.3742 13.9164L18.3936 13.9146C18.4001 13.914 18.4066 13.9134 18.413 13.9127C18.4195 13.9121 18.426 13.9113 18.4325 13.9105L18.4519 13.9082C18.4584 13.9074 18.4649 13.9066 18.4713 13.9057C18.4778 13.9048 18.4843 13.9038 18.4908 13.9028C18.4973 13.9018 18.5038 13.9009 18.5102 13.8998L18.5296 13.8966L18.5491 13.8931C18.5556 13.8919 18.5621 13.8908 18.5685 13.8895C18.575 13.8882 18.5815 13.8868 18.5879 13.8855L18.6074 13.8813C18.6139 13.8799 18.6204 13.8784 18.6268 13.8769C18.6333 13.8754 18.6398 13.8738 18.6463 13.8722C18.6527 13.8706 18.6592 13.869 18.6657 13.8673C18.6722 13.8656 18.6787 13.8639 18.6851 13.8621C18.6916 13.8603 18.6981 13.8585 18.7045 13.8566C18.7111 13.8547 18.7175 13.8528 18.724 13.8509L18.7434 13.8448C18.75 13.8428 18.7564 13.8406 18.7629 13.8385C18.7694 13.8363 18.7759 13.8341 18.7823 13.8319C18.7888 13.8296 18.7953 13.8273 18.8017 13.825C18.8083 13.8226 18.8147 13.8201 18.8212 13.8176C18.8277 13.8151 18.8341 13.8126 18.8406 13.81C18.8471 13.8074 18.8536 13.8048 18.86 13.8021C18.8666 13.7994 18.873 13.7966 18.8795 13.7938C18.886 13.791 18.8925 13.7881 18.8989 13.7851C18.9054 13.7821 18.9119 13.7792 18.9183 13.7761C18.9248 13.773 18.9313 13.7699 18.9378 13.7667C18.9443 13.7635 18.9508 13.7602 18.9572 13.7568C18.9637 13.7534 18.9702 13.75 18.9766 13.7465C18.9832 13.7429 18.9897 13.7394 18.9961 13.7358C19.0026 13.7321 19.0091 13.7283 19.0155 13.7246C19.022 13.7207 19.0285 13.7168 19.0349 13.7129C19.0415 13.7088 19.0479 13.7047 19.0544 13.7006C19.0609 13.6964 19.0674 13.6921 19.0738 13.6878C19.0804 13.6834 19.0868 13.6789 19.0932 13.6744C19.0998 13.6697 19.1063 13.6651 19.1127 13.6603C19.1192 13.6555 19.1257 13.6506 19.1321 13.6456C19.1387 13.6406 19.1452 13.6354 19.1516 13.6302C19.1581 13.6249 19.1646 13.6195 19.171 13.6141C19.1775 13.6085 19.184 13.6028 19.1904 13.597C19.197 13.5911 19.2035 13.5851 19.2098 13.5791C19.2164 13.5728 19.2229 13.5665 19.2293 13.5601C19.2359 13.5535 19.2423 13.5468 19.2487 13.54C19.2553 13.533 19.2618 13.5259 19.2682 13.5187C19.2748 13.5113 19.2812 13.5037 19.2876 13.496C19.2942 13.488 19.3007 13.48 19.307 13.4718C19.3136 13.4632 19.3202 13.4546 19.3265 13.4458C19.3331 13.4365 19.3396 13.427 19.3459 13.4174C19.3526 13.4073 19.3591 13.397 19.3653 13.3866C19.3721 13.3754 19.3785 13.3641 19.3848 13.3526C19.3915 13.3401 19.398 13.3275 19.4042 13.3146C19.4111 13.3003 19.4175 13.2857 19.4236 13.2709C19.4306 13.254 19.4371 13.2368 19.4431 13.2193C19.4504 13.1977 19.4568 13.1757 19.4625 13.1533C19.4708 13.1206 19.4773 13.0871 19.4819 13.0527C19.4876 13.0109 19.4905 12.968 19.4905 12.924C19.4905 12.881 19.4876 12.8394 19.4819 12.7989C19.4773 12.7656 19.4708 12.7332 19.4625 12.7016C19.4568 12.6801 19.4503 12.659 19.4431 12.6383C19.4371 12.6213 19.4306 12.6046 19.4236 12.5882C19.4176 12.574 19.4111 12.56 19.4042 12.5462C19.398 12.5338 19.3915 12.5215 19.3848 12.5095C19.3785 12.4984 19.3721 12.4874 19.3653 12.4766C19.3591 12.4666 19.3526 12.4567 19.3459 12.4469C19.3396 12.4377 19.3331 12.4285 19.3265 12.4196C19.3202 12.4111 19.3137 12.4028 19.307 12.3945C19.3007 12.3866 19.2942 12.3788 19.2876 12.3711C19.2812 12.3637 19.2748 12.3564 19.2682 12.3492C19.2618 12.3422 19.2553 12.3354 19.2487 12.3286C19.2424 12.3221 19.2359 12.3156 19.2293 12.3093C19.2229 12.3031 19.2164 12.297 19.2098 12.291C19.2035 12.2852 19.197 12.2794 19.1904 12.2737C19.184 12.2681 19.1775 12.2627 19.171 12.2573C19.1646 12.252 19.1581 12.2468 19.1516 12.2416C19.1451 12.2366 19.1387 12.2316 19.1321 12.2267C19.1257 12.2219 19.1192 12.2172 19.1127 12.2125C19.1063 12.2079 19.0998 12.2034 19.0932 12.1989C19.0868 12.1946 19.0804 12.1902 19.0738 12.186C19.0674 12.1818 19.0609 12.1776 19.0544 12.1736C19.0479 12.1696 19.0415 12.1656 19.0349 12.1617C19.0285 12.1579 19.022 12.1541 19.0155 12.1504C19.0091 12.1467 19.0026 12.1431 18.9961 12.1395C18.9897 12.136 18.9832 12.1325 18.9766 12.1291C18.9702 12.1258 18.9637 12.1224 18.9572 12.1191C18.9508 12.1159 18.9443 12.1127 18.9378 12.1095C18.9313 12.1064 18.9249 12.1033 18.9183 12.1003C18.9119 12.0973 18.9054 12.0945 18.8989 12.0916C18.8925 12.0887 18.886 12.0859 18.8795 12.0832C18.873 12.0804 18.8665 12.0777 18.86 12.0751C18.8536 12.0725 18.8471 12.0698 18.8406 12.0673C18.8341 12.0648 18.8277 12.0623 18.8212 12.0599C18.8147 12.0575 18.8082 12.0551 18.8017 12.0528C18.7953 12.0505 18.7888 12.0483 18.7823 12.046C18.7758 12.0438 18.7694 12.0416 18.7629 12.0395C18.7564 12.0374 18.7499 12.0353 18.7434 12.0333C18.737 12.0313 18.7305 12.0293 18.724 12.0274L18.7045 12.0217C18.6981 12.0199 18.6916 12.018 18.6851 12.0163C18.6787 12.0145 18.6722 12.0129 18.6657 12.0112C18.6592 12.0095 18.6528 12.0079 18.6463 12.0063C18.6398 12.0047 18.6333 12.0032 18.6268 12.0017C18.6204 12.0002 18.6139 11.9987 18.6074 11.9973C18.6009 11.9959 18.5945 11.9945 18.5879 11.9932C18.5815 11.9918 18.575 11.9905 18.5685 11.9892L18.5491 11.9855L18.5296 11.9821C18.5232 11.981 18.5167 11.9798 18.5102 11.9788L18.4908 11.9758C18.4843 11.9748 18.4778 11.9739 18.4713 11.973L18.4519 11.9703L18.4325 11.9679L18.413 11.9657L18.3936 11.9637L18.3742 11.9619L18.3547 11.9603L18.3368 11.9589L18.3368 11.9358L18.3547 11.933L18.3742 11.9298C18.3807 11.9287 18.3872 11.9276 18.3936 11.9265L18.413 11.9227C18.4196 11.9215 18.426 11.9201 18.4325 11.9188L18.4519 11.9146C18.4584 11.9131 18.4649 11.9116 18.4713 11.9101C18.4779 11.9085 18.4843 11.9069 18.4908 11.9053C18.4973 11.9036 18.5038 11.9019 18.5102 11.9002C18.5167 11.8984 18.5232 11.8966 18.5296 11.8948C18.5362 11.8929 18.5426 11.8911 18.5491 11.8891C18.5556 11.8872 18.5621 11.8852 18.5685 11.8831C18.575 11.881 18.5815 11.8789 18.5879 11.8767C18.5945 11.8745 18.6009 11.8723 18.6074 11.87C18.6139 11.8677 18.6204 11.8654 18.6268 11.863C18.6333 11.8605 18.6398 11.8581 18.6463 11.8556C18.6528 11.853 18.6593 11.8504 18.6657 11.8478C18.6722 11.8451 18.6787 11.8424 18.6851 11.8396C18.6917 11.8367 18.6981 11.8339 18.7045 11.8309C18.7111 11.828 18.7176 11.8249 18.724 11.8219C18.7305 11.8187 18.737 11.8156 18.7434 11.8124C18.75 11.8091 18.7564 11.8057 18.7629 11.8024C18.7694 11.7989 18.7759 11.7954 18.7823 11.7919C18.7888 11.7883 18.7953 11.7846 18.8017 11.7809C18.8083 11.7771 18.8148 11.7733 18.8212 11.7694C18.8277 11.7654 18.8342 11.7613 18.8406 11.7572C18.8471 11.7531 18.8536 11.7488 18.86 11.7445C18.8666 11.7401 18.8731 11.7356 18.8795 11.7311C18.886 11.7265 18.8925 11.7218 18.8989 11.717C18.9055 11.7121 18.9119 11.7072 18.9183 11.7022C18.9249 11.6971 18.9314 11.6919 18.9378 11.6866C18.9443 11.6812 18.9508 11.6756 18.9572 11.6701C18.9638 11.6643 18.9703 11.6585 18.9766 11.6526C18.9832 11.6465 18.9897 11.6403 18.9961 11.6341C19.0027 11.6276 19.0092 11.6211 19.0155 11.6145C19.0221 11.6075 19.0286 11.6006 19.0349 11.5935C19.0416 11.5861 19.048 11.5787 19.0544 11.5711C19.061 11.5633 19.0675 11.5553 19.0738 11.5472C19.0805 11.5386 19.0869 11.53 19.0932 11.5213C19.0999 11.512 19.1064 11.5026 19.1127 11.4932C19.1194 11.4831 19.1259 11.4729 19.1321 11.4625C19.1389 11.4513 19.1453 11.4399 19.1516 11.4285C19.1584 11.4159 19.1648 11.4031 19.171 11.3902C19.1779 11.3757 19.1844 11.3609 19.1904 11.346C19.1975 11.3287 19.2039 11.3111 19.2098 11.2933C19.2173 11.2709 19.2237 11.2482 19.2293 11.2252C19.2383 11.1878 19.2447 11.1496 19.2487 11.1108C19.2519 11.0802 19.2535 11.0492 19.2535 11.0178C19.2535 10.9847 19.2519 10.9525 19.2487 10.921C19.2447 10.8808 19.2382 10.842 19.2293 10.8045C19.2237 10.781 19.2172 10.7582 19.2098 10.7358C19.2039 10.718 19.1975 10.7004 19.1904 10.6833C19.1843 10.6685 19.1779 10.6539 19.171 10.6396C19.1648 10.6269 19.1583 10.6144 19.1516 10.6021C19.1453 10.5908 19.1388 10.5797 19.1321 10.5687C19.1258 10.5586 19.1194 10.5486 19.1127 10.5387C19.1064 10.5295 19.0999 10.5204 19.0932 10.5114C19.0869 10.503 19.0805 10.4946 19.0738 10.4864C19.0675 10.4785 19.061 10.4707 19.0544 10.463C19.048 10.4558 19.0416 10.4486 19.0349 10.4415C19.0286 10.4347 19.0221 10.428 19.0155 10.4214C19.0091 10.415 19.0027 10.4087 18.9961 10.4024C18.9897 10.3964 18.9832 10.3904 18.9766 10.3846C18.9703 10.3789 18.9638 10.3733 18.9572 10.3678C18.9508 10.3624 18.9443 10.3571 18.9378 10.3518C18.9314 10.3467 18.9249 10.3417 18.9183 10.3368C18.9119 10.3319 18.9055 10.3272 18.8989 10.3225C18.8925 10.3179 18.886 10.3134 18.8795 10.3089C18.873 10.3046 18.8666 10.3003 18.86 10.2961C18.8536 10.2919 18.8471 10.2878 18.8406 10.2838C18.8342 10.2798 18.8277 10.2759 18.8212 10.2721C18.8147 10.2683 18.8083 10.2646 18.8017 10.2609C18.7953 10.2573 18.7888 10.2538 18.7823 10.2503C18.7759 10.2469 18.7694 10.2435 18.7629 10.2402C18.7564 10.2369 18.75 10.2336 18.7434 10.2305C18.737 10.2273 18.7305 10.2242 18.724 10.2212C18.7176 10.2182 18.7111 10.2152 18.7045 10.2124C18.6981 10.2095 18.6916 10.2068 18.6851 10.204C18.6787 10.2013 18.6722 10.1986 18.6657 10.196C18.6593 10.1934 18.6528 10.1908 18.6463 10.1883C18.6398 10.1858 18.6333 10.1834 18.6268 10.181C18.6204 10.1786 18.6139 10.1763 18.6074 10.174C18.6009 10.1717 18.5945 10.1695 18.5879 10.1674C18.5815 10.1652 18.575 10.1631 18.5685 10.1611C18.5621 10.159 18.5556 10.157 18.5491 10.155C18.5426 10.1531 18.5362 10.1511 18.5296 10.1493C18.5232 10.1474 18.5167 10.1456 18.5102 10.1439C18.5038 10.1421 18.4973 10.1404 18.4908 10.1387L18.4713 10.1338C18.4649 10.1322 18.4584 10.1307 18.4519 10.1292C18.4455 10.1277 18.439 10.1263 18.4325 10.1249L18.413 10.1207C18.4066 10.1194 18.4001 10.1181 18.3936 10.1168C18.3872 10.1156 18.3807 10.1144 18.3742 10.1132L18.3547 10.1099C18.3483 10.1088 18.3418 10.1077 18.3353 10.1066L18.3159 10.1037L18.2964 10.101L18.277 10.0984L18.2576 10.0961L18.2381 10.0941L18.2187 10.0921L18.1992 10.0904L18.1798 10.0889L18.1604 10.0876L18.141 10.0865L18.1332 10.086L18.1215 10.0853L18.1021 10.0842L18.0826 10.0831L18.0632 10.0821L18.0438 10.0812L18.0244 10.0803L18.0049 10.0796L17.9855 10.079L17.966 10.0786L17.9466 10.0784L17.9359 10.0783H17.9272H17.9077H17.8883H17.8689H17.8494H17.83H17.8106H17.7911H17.7717H17.7523H17.7328H17.7134H17.694H17.6745H17.6551H17.6357H17.6162H17.5968H17.5773H17.5579H17.5385H17.5191H17.4996H17.4802H17.4607H17.4413H17.4219H17.4024H17.383H17.3636H17.3441H17.3247H17.3053H17.2858H17.2664H17.247H17.2275H17.2081H17.1887H17.1692H17.1498H17.1304H17.1109H17.0915H17.0721H17.0526H17.0332H17.0138H16.9943H16.9749H16.9554H16.936H16.9166H16.8971H16.8777H16.8583H16.8388H16.8194H16.8H16.7805H16.7611H16.7417H16.7222H16.7028H16.6834H16.6639H16.6445H16.6251H16.6056H16.5862H16.5668H16.5473H16.5279H16.5085H16.489H16.4696H16.4502H16.4307H16.4113H16.3918H16.3724H16.353H16.3335H16.3141H16.2947H16.2752H16.2558H16.2364H16.2169H16.1975H16.1781H16.1586H16.1392H16.1198H16.1003H16.0809H16.0615H16.042H16.0226H16.0032H15.9837H15.9643H15.9449H15.9254H15.906H15.8865H15.8671H15.8477H15.8283H15.8088H15.7894H15.7699H15.7505H15.7311H15.7116H15.6922H15.6728H15.6533H15.6339H15.6145H15.595H15.5756H15.5562H15.5367H15.5173H15.4979H15.4784H15.459H15.4396H15.4201H15.4007H15.3812H15.3618H15.3424H15.323H15.3035H15.2841H15.2646H15.2452H15.2258H15.2063H15.1869H15.1675H15.148H15.1286H15.0867V8.00177C15.0867 7.86207 15.1012 7.72575 15.1286 7.59412C15.1345 7.56594 15.141 7.53799 15.148 7.51027C15.1541 7.48655 15.1606 7.463 15.1675 7.43963C15.1736 7.41875 15.1801 7.39802 15.1869 7.37743C15.1931 7.35862 15.1996 7.3399 15.2063 7.32135C15.2126 7.30414 15.219 7.28702 15.2258 7.27003C15.2321 7.25416 15.2385 7.23837 15.2452 7.22271C15.2515 7.20793 15.258 7.19321 15.2646 7.17861C15.271 7.16474 15.2775 7.15097 15.2841 7.13727C15.2904 7.1242 15.2969 7.11123 15.3035 7.09832C15.3099 7.08591 15.3164 7.07359 15.323 7.06132C15.3293 7.0495 15.3358 7.03776 15.3424 7.02608C15.3488 7.01475 15.3552 7.00352 15.3618 6.99234C15.3682 6.9815 15.3747 6.9707 15.3812 6.96C15.3876 6.94962 15.3941 6.93931 15.4007 6.92906C15.4071 6.91913 15.4136 6.90929 15.4201 6.89948C15.4265 6.88988 15.433 6.88032 15.4396 6.87083C15.446 6.86154 15.4524 6.85224 15.459 6.84306C15.4654 6.83417 15.4719 6.82539 15.4784 6.8166C15.4848 6.80796 15.4913 6.79939 15.4979 6.79086C15.5043 6.78247 15.5107 6.77404 15.5173 6.76575C15.5237 6.75769 15.5302 6.74975 15.5367 6.74179C15.5431 6.73393 15.5496 6.72614 15.5562 6.7184C15.5626 6.71075 15.569 6.70311 15.5756 6.69556C15.582 6.6882 15.5885 6.68097 15.595 6.6737C15.6015 6.66651 15.6079 6.65929 15.6145 6.65219C15.6209 6.64523 15.6274 6.63834 15.6339 6.63146C15.6403 6.62467 15.6468 6.61794 15.6533 6.61124C15.6598 6.60463 15.6662 6.59802 15.6728 6.5915C15.6792 6.58508 15.6857 6.57876 15.6922 6.57244C15.6987 6.56616 15.7051 6.55981 15.7116 6.55362C15.718 6.54755 15.7246 6.54163 15.7311 6.53565C15.7375 6.5297 15.744 6.52373 15.7505 6.51786C15.7569 6.51209 15.7634 6.50643 15.7699 6.50075C15.7764 6.4951 15.7829 6.48945 15.7894 6.48389C15.7958 6.4784 15.8023 6.47299 15.8088 6.46759C15.8153 6.46223 15.8217 6.45688 15.8283 6.45161C15.8347 6.44637 15.8412 6.44121 15.8477 6.43607L15.8671 6.42089L15.8865 6.40611C15.893 6.40126 15.8995 6.39645 15.906 6.39168C15.9124 6.38696 15.9189 6.38226 15.9254 6.3776L15.9449 6.3639C15.9513 6.3594 15.9578 6.35494 15.9643 6.35052L15.9837 6.33745L16.0032 6.32474C16.0096 6.32056 16.0161 6.3164 16.0226 6.31231L16.042 6.30024C16.0485 6.29626 16.0549 6.29228 16.0615 6.28837C16.0679 6.2845 16.0744 6.28074 16.0809 6.27695C16.0874 6.27316 16.0938 6.26934 16.1003 6.26563C16.1068 6.26196 16.1133 6.25843 16.1198 6.25483C16.1262 6.25123 16.1327 6.24757 16.1392 6.24405C16.1456 6.24058 16.1522 6.23722 16.1586 6.23381C16.1651 6.2304 16.1716 6.22698 16.1781 6.22364C16.1845 6.22032 16.191 6.21711 16.1975 6.21388C16.204 6.21066 16.2104 6.20743 16.2169 6.20428L16.2364 6.19495C16.2428 6.1919 16.2493 6.18892 16.2558 6.18593C16.2623 6.18296 16.2687 6.17993 16.2752 6.17702C16.2817 6.17414 16.2882 6.17139 16.2947 6.16858C16.3012 6.16576 16.3076 6.1629 16.3141 6.16014C16.3205 6.15743 16.3271 6.15483 16.3335 6.15218C16.34 6.14954 16.3465 6.14687 16.353 6.14429L16.3724 6.13669L16.3918 6.12935C16.3983 6.12692 16.4048 6.12446 16.4113 6.1221C16.4177 6.11977 16.4242 6.11758 16.4307 6.11531C16.4372 6.11303 16.4436 6.11071 16.4502 6.10851C16.4566 6.10632 16.4631 6.10425 16.4696 6.10212L16.489 6.09587C16.4955 6.09382 16.502 6.09176 16.5085 6.08978C16.5149 6.08781 16.5214 6.08595 16.5279 6.08405C16.5344 6.08213 16.5408 6.08015 16.5473 6.07831C16.5538 6.07648 16.5603 6.07479 16.5668 6.07303C16.5732 6.07127 16.5797 6.06949 16.5862 6.0678L16.6056 6.0628C16.6121 6.06119 16.6186 6.05965 16.6251 6.0581C16.6315 6.05655 16.638 6.05489 16.6445 6.0534C16.6509 6.05193 16.6575 6.05058 16.6639 6.04916L16.6834 6.04495L16.7028 6.04097C16.7092 6.03969 16.7158 6.03849 16.7222 6.03727C16.7287 6.03604 16.7352 6.03473 16.7417 6.03356C16.7481 6.03239 16.7546 6.0314 16.7611 6.03032L16.7805 6.02712C16.787 6.02609 16.7935 6.02504 16.8 6.02408C16.8064 6.02312 16.8129 6.02227 16.8194 6.02137C16.8259 6.02048 16.8323 6.0195 16.8388 6.01867C16.8453 6.01784 16.8518 6.0171 16.8583 6.01633L16.8777 6.01413C16.8842 6.01342 16.8906 6.01264 16.8971 6.012C16.9036 6.01136 16.9101 6.01086 16.9166 6.01029L16.936 6.00858L16.9554 6.00712C16.9619 6.00666 16.9684 6.00629 16.9749 6.00589C16.9813 6.0055 16.9878 6.00501 16.9943 6.00467C17.0008 6.00434 17.0073 6.00414 17.0138 6.00387L17.0332 6.00315C17.0397 6.00294 17.0461 6.00267 17.0526 6.00253C17.0591 6.00239 17.0656 6.00237 17.0721 6.00227C17.0785 6.00218 17.085 6.00207 17.0915 6.00203L17.0964 6.00197H17.1109H17.1304H17.1498H17.1692H17.1887H17.2081H17.2275H17.247H17.2664H17.2858H17.3053H17.3247H17.3441H17.3636H17.383H17.4024H17.4219H17.4413H17.4607H17.4802H17.4996H17.5191H17.5385H17.5579H17.5773H17.5968H17.6162H17.6357H17.6551H17.6745H17.694H17.7134H17.7328H17.7523H17.7717H17.7911H17.8106H17.83H17.8494H17.8689H17.8883H17.9077H17.9272H17.9466H17.966H17.9855H18.0049H18.0244H18.0438H18.0632H18.0826H18.1021H18.1215H18.141H18.1604H18.1798H18.1992H18.2187H18.2381H18.2576H18.277H18.2964H18.3159H18.3353H18.3547H18.3742H18.3936H18.413H18.4325H18.4519H18.4713H18.4908H18.5102H18.5296H18.5491H18.5685H18.5879H18.6074H18.6268H18.6463H18.6657H18.6851H18.7045H18.724H18.7434H18.7629H18.7823H18.8017H18.8212H18.8406H18.86H18.8795H18.8989H18.9183H18.9378H18.9572H18.9766H18.9961H19.0155H19.0349H19.0544H19.0738H19.0932H19.1127H19.1321H19.1516H19.171H19.1904H19.2098H19.2293H19.2487H19.2682H19.2876H19.307H19.3265H19.3459H19.3653H19.3848H19.4042H19.4236H19.4431H19.4625H19.4819H19.5014H19.5208H19.5402H19.5597H19.5791H19.5985H19.618H19.6374H19.6568H19.6763H19.6957H19.7151H19.7346H19.754H19.7735H19.7929H19.8123H19.8318H19.8512H19.8706H19.8901H19.9095H19.9289H19.9484H19.9678H19.9872H20.0067H20.0261H20.0455V6.00195Z" fill="#54B230"/>
<path fill-rule="evenodd" clip-rule="evenodd" d="M3.94604 12.9383V7.9998C3.94604 7.8605 3.96041 7.72453 3.98772 7.59326C3.99358 7.56507 4.00009 7.53714 4.00713 7.5094C4.01315 7.48565 4.01964 7.46209 4.02652 7.43868C4.03266 7.41782 4.03913 7.39712 4.04591 7.37655C4.05213 7.35772 4.05856 7.33897 4.06532 7.32039C4.07159 7.30319 4.078 7.28609 4.08472 7.26912C4.09098 7.25325 4.09746 7.23743 4.10413 7.22175C4.11042 7.20697 4.11688 7.19228 4.12352 7.1777C4.12983 7.16383 4.13631 7.15007 4.14291 7.13638C4.14923 7.12329 4.15573 7.1103 4.16232 7.09738C4.16865 7.08496 4.17513 7.07265 4.18172 7.06039C4.18806 7.04857 4.19454 7.03683 4.20111 7.02515C4.20747 7.01384 4.21393 7.0026 4.22052 6.99143C4.2269 6.98058 4.23333 6.96977 4.23991 6.95905C4.24629 6.94869 4.25277 6.9384 4.25932 6.92816C4.26567 6.91824 4.27219 6.90839 4.27872 6.89858C4.28511 6.88899 4.29155 6.87942 4.29811 6.86993C4.30455 6.86062 4.31093 6.85133 4.31752 6.84213C4.32388 6.83325 4.33041 6.82449 4.33691 6.81571C4.34332 6.80707 4.34978 6.79849 4.35632 6.78997C4.36275 6.78158 4.36916 6.77314 4.37572 6.76485C4.3821 6.75681 4.38862 6.74889 4.39511 6.74094C4.40152 6.73308 4.40798 6.72526 4.41452 6.7175C4.42095 6.70987 4.42737 6.70226 4.43391 6.69472C4.44031 6.68735 4.44682 6.6801 4.45332 6.67282C4.45975 6.66561 4.46618 6.65841 4.47272 6.65131C4.47911 6.64435 4.48562 6.63749 4.49211 6.63062C4.49854 6.62382 4.505 6.61709 4.51152 6.61039C4.51795 6.60378 4.52439 6.59717 4.53091 6.59065C4.53732 6.58423 4.54383 6.57791 4.55032 6.5716C4.55678 6.56531 4.56318 6.55897 4.56972 6.55278C4.57611 6.54672 4.58264 6.5408 4.58911 6.53482C4.59557 6.52885 4.60198 6.52287 4.60852 6.517C4.61493 6.51124 4.62144 6.50559 4.62791 6.49991C4.63437 6.49427 4.6408 6.4886 4.64732 6.48304C4.65375 6.47755 4.66023 6.47216 4.66672 6.46675C4.67314 6.46139 4.6796 6.45603 4.68611 6.45076C4.69254 6.44554 4.69903 6.44037 4.70552 6.43522C4.71196 6.43012 4.71841 6.42507 4.72491 6.42004C4.73134 6.41507 4.73783 6.41016 4.74432 6.40526C4.75077 6.40041 4.75723 6.39558 4.76372 6.39082L4.78311 6.37677C4.78955 6.37215 4.79601 6.36756 4.80252 6.36301C4.80895 6.35852 4.81542 6.35407 4.82192 6.34966C4.82836 6.34526 4.83482 6.34089 4.84131 6.33657C4.84775 6.3323 4.85423 6.32809 4.86072 6.32389C4.86716 6.31971 4.8736 6.3155 4.88011 6.31139C4.88654 6.30733 4.89303 6.30336 4.89952 6.29936C4.90598 6.29538 4.91241 6.29135 4.91892 6.28745C4.92533 6.28359 4.93183 6.27985 4.93831 6.27606C4.94478 6.27226 4.9512 6.26841 4.95772 6.26468C4.96413 6.26102 4.97065 6.25752 4.97711 6.25392C4.98359 6.25032 4.99001 6.24667 4.99652 6.24313C5.00295 6.23965 5.00944 6.23629 5.01592 6.23288C5.02237 6.22947 5.02882 6.22605 5.03531 6.22271C5.04175 6.2194 5.04823 6.21615 5.05472 6.2129L5.07411 6.20333C5.08057 6.20018 5.08703 6.19703 5.09352 6.19396C5.09997 6.19091 5.10644 6.18795 5.11292 6.18495C5.11939 6.18196 5.1258 6.17891 5.13231 6.176C5.13874 6.1731 5.14524 6.17038 5.15172 6.16757C5.15818 6.16475 5.16462 6.16189 5.17111 6.15914C5.17756 6.15642 5.18405 6.15379 5.19052 6.15114L5.20992 6.14327L5.22931 6.13562L5.24872 6.12829C5.2552 6.12586 5.26161 6.12335 5.26811 6.12098C5.27454 6.11865 5.28106 6.11647 5.28752 6.1142C5.29398 6.11193 5.30043 6.10963 5.30692 6.10742L5.32631 6.10097L5.34572 6.09472C5.35218 6.09267 5.35862 6.09057 5.36511 6.08859C5.37154 6.08662 5.37805 6.08475 5.38451 6.08285C5.39098 6.08093 5.39743 6.07898 5.40392 6.07712C5.41036 6.07528 5.41684 6.07357 5.42331 6.07179L5.44272 6.06656C5.44918 6.06487 5.45562 6.06314 5.46211 6.06151C5.46856 6.05988 5.47505 6.05839 5.48151 6.05682C5.48797 6.05525 5.49443 6.05362 5.50092 6.05212C5.50736 6.05063 5.51385 6.04924 5.52031 6.04781L5.53972 6.04362C5.54618 6.04225 5.55262 6.04086 5.55911 6.03956C5.56556 6.03828 5.57205 6.0371 5.57851 6.03586C5.58498 6.03463 5.59143 6.03335 5.59792 6.03219C5.60438 6.03102 5.61084 6.02996 5.61731 6.02886L5.63672 6.02566C5.64318 6.02463 5.64962 6.02353 5.65611 6.02256C5.66256 6.02158 5.66905 6.02076 5.67551 6.01985C5.68197 6.01896 5.68843 6.018 5.69492 6.01715L5.71431 6.01473L5.73372 6.01254C5.7402 6.01182 5.74662 6.01099 5.75312 6.01033C5.75956 6.00968 5.76605 6.0092 5.77251 6.00861L5.79192 6.00691C5.79838 6.00637 5.80484 6.00584 5.81131 6.00537C5.81777 6.00491 5.82425 6.00454 5.83072 6.00414C5.8372 6.00374 5.84364 6.00328 5.85012 6.00293C5.85656 6.00258 5.86303 6.00234 5.86951 6.00205L5.88892 6.00131C5.89538 6.00109 5.90182 6.00075 5.90831 6.00059C5.91476 6.00043 5.92125 6.00045 5.92771 6.00035C5.93417 6.00026 5.94064 6.00014 5.94712 6.00011L5.96651 6H5.98592H6.00531H6.02471H6.04412H6.06351H6.08292H6.10231H6.12171H6.14112H6.16051H6.17992H6.19931H6.21871H6.23812H6.25751H6.27692H6.29631H6.31571H6.33512H6.35451H6.37392H6.39331H6.41271H6.43212H6.45151H6.47092H6.49031H6.50971H6.52912H6.54851H6.56792H6.58731H6.60671H6.62612H6.64551H6.66491H6.68432H6.70371H6.72312H6.74251H6.76191H6.78132H6.80071H6.82012H6.83951H6.85891H6.87832H6.89771H6.91712H6.93651H6.95591H6.97532H6.99471H7.01412H7.03351H7.05291H7.07232H7.09171H7.1111H7.13051H7.14991H7.16932H7.18871H7.20812H7.22751H7.24691H7.26632H7.28571H7.3051H7.32451H7.34391H7.36332H7.38271H7.4021H7.42151H7.44091H7.46032H7.47971H7.49911H7.51851H7.53791H7.55732H7.57671H7.59611H7.61551H7.63491H7.6543H7.67371H7.69311H7.71252H7.73191H7.75132H7.77071H7.79011H7.80952H7.82891H7.84832H7.86771H7.88711H7.90652H7.92591H7.9453H7.96471H7.98411H8.00352H8.02291H8.04232H8.06171H8.08111H8.10052H8.11991H8.1393H8.15871H8.17811H8.19752H8.21691H8.2363H8.25571H8.27511H8.2945H8.31391H8.3333H8.35271H8.37211H8.39152H8.41091H8.43031H8.44971H8.46911H8.4885H8.50791H8.52731H8.54672H8.56611H8.5855H8.60491H8.62431H8.64372H8.66311H8.6825H8.70191H8.72131H8.74072H8.76011H8.7795H8.79891H8.81831H8.8377H8.85711H8.8765H8.89591H8.91237V15.9983C8.91237 16.0852 8.90675 16.1709 8.89591 16.255C8.89069 16.2954 8.88412 16.3355 8.8765 16.3751C8.8707 16.4053 8.86426 16.4353 8.85711 16.4649C8.85109 16.4899 8.84464 16.5148 8.8377 16.5394C8.8316 16.561 8.8251 16.5825 8.81831 16.6038C8.81214 16.623 8.80565 16.6422 8.79891 16.6612C8.79268 16.6788 8.78622 16.6964 8.7795 16.7137C8.77324 16.73 8.76678 16.7461 8.76011 16.7621C8.75383 16.7772 8.74735 16.7922 8.74072 16.8071C8.7344 16.8213 8.72793 16.8353 8.72131 16.8493C8.71499 16.8626 8.70852 16.8759 8.70191 16.889C8.69557 16.9017 8.68911 16.9142 8.6825 16.9267C8.67616 16.9387 8.6697 16.9507 8.66311 16.9625C8.65673 16.974 8.65032 16.9855 8.64372 16.9968C8.63735 17.0077 8.63088 17.0186 8.62431 17.0294C8.61796 17.0399 8.61145 17.0502 8.60491 17.0606C8.59853 17.0707 8.59206 17.0807 8.5855 17.0907C8.57909 17.1004 8.57268 17.1101 8.56611 17.1197C8.55973 17.1291 8.55324 17.1383 8.54672 17.1475C8.54034 17.1566 8.53384 17.1655 8.52731 17.1744C8.52089 17.1831 8.51445 17.1919 8.50791 17.2005C8.50152 17.2089 8.49504 17.2173 8.4885 17.2257C8.48211 17.2338 8.47562 17.2419 8.46911 17.2499C8.46268 17.2579 8.45625 17.2658 8.44971 17.2737C8.44332 17.2813 8.43681 17.2889 8.43031 17.2964C8.42389 17.3039 8.41744 17.3113 8.41091 17.3186C8.40447 17.3259 8.39806 17.3332 8.39152 17.3404C8.38512 17.3474 8.3786 17.3543 8.37211 17.3612C8.36566 17.368 8.35925 17.3749 8.35271 17.3817C8.3463 17.3883 8.33981 17.3949 8.3333 17.4014C8.32688 17.4079 8.32043 17.4143 8.31391 17.4207C8.30748 17.4271 8.30102 17.4333 8.2945 17.4396C8.28809 17.4457 8.2816 17.4517 8.27511 17.4578C8.26866 17.4638 8.26224 17.4698 8.25571 17.4757C8.2493 17.4815 8.2428 17.4872 8.2363 17.493C8.22985 17.4987 8.22345 17.5044 8.21691 17.51C8.21052 17.5155 8.20398 17.5209 8.19752 17.5263C8.19106 17.5318 8.18463 17.5372 8.17811 17.5426C8.1717 17.5478 8.16519 17.553 8.15871 17.5581C8.15225 17.5633 8.14583 17.5685 8.1393 17.5735C8.13289 17.5785 8.12639 17.5834 8.11991 17.5883C8.11345 17.5932 8.10704 17.5981 8.10052 17.6029C8.09411 17.6077 8.08758 17.6123 8.08111 17.617C8.07465 17.6216 8.06824 17.6263 8.06171 17.6309C8.0553 17.6354 8.0488 17.6399 8.04232 17.6443C8.03584 17.6487 8.02943 17.6532 8.02291 17.6576C8.0165 17.6619 8.00999 17.6661 8.00352 17.6703C7.99704 17.6745 7.99063 17.6788 7.98411 17.683C7.9777 17.6871 7.97117 17.691 7.96471 17.695C7.95825 17.699 7.95183 17.7031 7.9453 17.707C7.93888 17.7109 7.93237 17.7147 7.92591 17.7185C7.91945 17.7223 7.91302 17.7261 7.90652 17.7299C7.90007 17.7336 7.8936 17.7372 7.88711 17.7408C7.88066 17.7444 7.8742 17.748 7.86771 17.7516C7.86127 17.7551 7.85481 17.7586 7.84832 17.762L7.82891 17.7722C7.82245 17.7755 7.81601 17.7789 7.80952 17.7822C7.80307 17.7854 7.7966 17.7886 7.79011 17.7918C7.78365 17.7949 7.77722 17.7982 7.77071 17.8013C7.76429 17.8044 7.75778 17.8073 7.75132 17.8103C7.74484 17.8133 7.73842 17.8164 7.73191 17.8193C7.72548 17.8222 7.71897 17.825 7.71252 17.8278L7.69311 17.8363L7.67371 17.8444C7.66727 17.8471 7.66078 17.8497 7.6543 17.8523C7.64784 17.8549 7.6414 17.8576 7.63491 17.8601C7.62848 17.8626 7.62199 17.865 7.61551 17.8674C7.60904 17.8699 7.60261 17.8724 7.59611 17.8748C7.58966 17.8771 7.58319 17.8794 7.57671 17.8817L7.55732 17.8885L7.53791 17.8951C7.53147 17.8972 7.52497 17.8993 7.51851 17.9013C7.51204 17.9034 7.50561 17.9056 7.49911 17.9076C7.49268 17.9096 7.48617 17.9114 7.47971 17.9134L7.46032 17.9191L7.44091 17.9246C7.43446 17.9264 7.42799 17.9281 7.42151 17.9298C7.41504 17.9315 7.4086 17.9333 7.4021 17.935C7.39568 17.9366 7.38915 17.9381 7.38271 17.9397C7.37625 17.9413 7.36979 17.9429 7.36332 17.9444L7.34391 17.9488L7.32451 17.953C7.31804 17.9544 7.31161 17.9559 7.3051 17.9572C7.29866 17.9586 7.29217 17.9597 7.28571 17.9609C7.27925 17.9622 7.27279 17.9634 7.26632 17.9646L7.24691 17.9681C7.24046 17.9692 7.23399 17.9702 7.22751 17.9713C7.22104 17.9723 7.2146 17.9735 7.20812 17.9745C7.20168 17.9755 7.19519 17.9763 7.18871 17.9772L7.16932 17.9799C7.16286 17.9808 7.1564 17.9817 7.14991 17.9825C7.14346 17.9833 7.13697 17.9839 7.13051 17.9847C7.12404 17.9854 7.1176 17.9862 7.1111 17.9869C7.10466 17.9876 7.09819 17.9881 7.09171 17.9887L7.07232 17.9904C7.06584 17.991 7.0594 17.9917 7.05291 17.9921C7.04646 17.9926 7.03997 17.9929 7.03351 17.9934L7.01412 17.9946L6.99471 17.9956C6.98827 17.9959 6.98178 17.9961 6.97532 17.9963C6.96884 17.9966 6.96238 17.9969 6.95591 17.9971C6.94946 17.9972 6.94297 17.9973 6.93651 17.9974L6.91712 17.9977C6.91113 17.9977 6.90515 17.9979 6.89913 17.9979H6.87832H6.85891H6.83951H6.82012H6.80071H6.78132H6.76191H6.74251H6.72312H6.70371H6.68432H6.66491H6.64551H6.62612H6.60671H6.58731H6.56792H6.54851H6.52912H6.50971H6.49031H6.47092H6.45151H6.43212H6.41271H6.39331H6.37392H6.35451H6.33512H6.31571H6.29631H6.27692H6.25751H6.23812H6.21871H6.19931H6.17992H6.16051H6.14112H6.12171H6.10231H6.08292H6.06351H6.04412H6.02471H6.00531H5.98592H5.96651H5.94712H5.92771H5.90831H5.88892H5.86951H5.85012H5.83072H5.81131H5.79192H5.77251H5.75312H5.73372H5.71431H5.69492H5.67551H5.65611H5.63672H5.61731H5.59792H5.57851H5.55911H5.53972H5.52031H5.50092H5.48151H5.46211H5.44272H5.42331H5.40392H5.38451H5.36511H5.34572H5.32631H5.30692H5.28752H5.26811H5.24872H5.22931H5.20992H5.19052H5.17111H5.15172H5.13231H5.11292H5.09352H5.07411H5.05472H5.03531H5.01592H4.99652H4.97711H4.95772H4.93831H4.91892H4.89952H4.88011H4.86072H4.84131H4.82192H4.80252H4.78311H4.76372H4.74432H4.72491H4.70552H4.68611H4.66672H4.64732H4.62791H4.60852H4.58911H4.56972H4.55032H4.53091H4.51152H4.49211H4.47272H4.45332H4.43391H4.41452H4.39511H4.37572H4.35632H4.33691H4.31752H4.29811H4.27872H4.25932H4.23991H4.22052H4.20111H4.18172H4.16232H4.14291H4.12352H4.10413H4.08472H4.06532H4.04591H4.02652H4.00713H3.98772H3.94604V13.7837C3.94604 13.7837 3.96038 13.7877 3.98772 13.7945L4.00713 13.7993L4.02652 13.804L4.04591 13.8086L4.06532 13.8132L4.08472 13.8177L4.10413 13.8221L4.12352 13.8265L4.14291 13.8307L4.16232 13.835L4.18172 13.8391L4.20111 13.8432L4.22052 13.8473L4.23991 13.8513L4.25932 13.8553L4.27872 13.8592L4.29811 13.863L4.31752 13.8668L4.33691 13.8706L4.35632 13.8743L4.37572 13.878L4.39511 13.8816L4.41452 13.8851L4.43391 13.8886L4.45332 13.8921L4.47272 13.8956L4.49211 13.8989L4.51152 13.9023L4.53091 13.9056L4.55032 13.9088L4.56972 13.912L4.58911 13.9152L4.60852 13.9183L4.62791 13.9214L4.64732 13.9244L4.66672 13.9274L4.68611 13.9303L4.70552 13.9332L4.72491 13.9361L4.74432 13.9389L4.76372 13.9417L4.78311 13.9444L4.80252 13.9471L4.82192 13.9498L4.84131 13.9524L4.86072 13.955L4.88011 13.9575L4.89952 13.96L4.91892 13.9624L4.93831 13.9648L4.95772 13.9672L4.97711 13.9695L4.99652 13.9718L5.01592 13.974L5.03531 13.9762L5.05472 13.9784L5.07411 13.9805L5.09352 13.9826L5.11292 13.9846L5.13231 13.9866L5.15172 13.9885L5.17111 13.9904L5.19052 13.9923L5.20992 13.9941L5.22931 13.9959L5.24872 13.9977L5.26811 13.9993L5.28752 14.001L5.30692 14.0026L5.32631 14.0042L5.34572 14.0057L5.36511 14.0072L5.38451 14.0087L5.40392 14.0101L5.42331 14.0114L5.44272 14.0128L5.46211 14.014L5.48151 14.0153L5.50092 14.0165L5.52031 14.0176L5.53972 14.0187L5.55911 14.0198L5.57851 14.0208L5.59792 14.0218L5.61731 14.0227L5.63672 14.0236L5.65611 14.0244L5.67551 14.0252L5.69492 14.026L5.71431 14.0267L5.73372 14.0274L5.75312 14.028L5.77251 14.0286L5.79192 14.0292L5.81131 14.0297L5.83072 14.0301L5.85012 14.0305L5.86951 14.0309L5.88892 14.0312L5.90831 14.0315L5.92771 14.0317L5.94712 14.0319L5.96651 14.032L5.98592 14.0321L6.00531 14.0321L6.02471 14.0321L6.04412 14.032L6.06351 14.0318L6.08292 14.0317L6.10231 14.0316L6.12171 14.0313L6.14112 14.0309L6.16051 14.0306L6.17992 14.0302L6.19931 14.0297L6.21871 14.0291L6.23812 14.0285L6.25751 14.0279L6.27692 14.0273L6.29631 14.0265L6.31571 14.0256L6.33512 14.0247L6.35451 14.0239L6.37392 14.0228L6.39331 14.0217L6.41271 14.0206L6.43212 14.0195L6.45151 14.0182L6.47092 14.0168L6.49031 14.0154L6.50971 14.014L6.52912 14.0125L6.54851 14.0108L6.56792 14.0092L6.58731 14.0075L6.60671 14.0057L6.62612 14.0037L6.64551 14.0018L6.66491 13.9998L6.68432 13.9977L6.70371 13.9954L6.72312 13.9931L6.74251 13.9909L6.76191 13.9884L6.78132 13.9858L6.80071 13.9832L6.82012 13.9806C6.82666 13.9797 6.83302 13.9786 6.83951 13.9777L6.85891 13.9748L6.87832 13.9719L6.89771 13.9688C6.90423 13.9678 6.91063 13.9667 6.91712 13.9656L6.93651 13.9624C6.94294 13.9613 6.94953 13.9602 6.95591 13.9591C6.96245 13.958 6.96881 13.9567 6.97532 13.9555L6.99471 13.9519L7.01412 13.9483L7.03351 13.9446C7.04004 13.9433 7.04643 13.9419 7.05291 13.9406L7.07232 13.9366L7.09171 13.9326C7.09827 13.9312 7.10461 13.9297 7.1111 13.9283L7.13051 13.9239C7.13694 13.9224 7.14353 13.9211 7.14991 13.9196C7.15646 13.918 7.16283 13.9164 7.16932 13.9149L7.18871 13.9101C7.19515 13.9085 7.20173 13.907 7.20812 13.9054C7.21464 13.9037 7.22105 13.902 7.22751 13.9003L7.24691 13.8952C7.25337 13.8935 7.25992 13.8918 7.26632 13.89C7.27284 13.8882 7.27925 13.8864 7.28571 13.8846L7.3051 13.879C7.31156 13.8771 7.31812 13.8753 7.32451 13.8734L7.34391 13.8675L7.36332 13.8614C7.36976 13.8594 7.37633 13.8575 7.38271 13.8554L7.4021 13.849L7.42151 13.8424C7.42796 13.8403 7.43455 13.8381 7.44091 13.8359C7.44746 13.8336 7.45383 13.8313 7.46032 13.8289L7.47971 13.8219C7.48617 13.8195 7.49271 13.8172 7.49911 13.8148C7.50566 13.8123 7.51204 13.8098 7.51851 13.8072C7.52499 13.8047 7.53151 13.8022 7.53791 13.7997L7.55732 13.7918L7.57671 13.7838C7.58315 13.7811 7.58974 13.7784 7.59611 13.7757C7.60268 13.7728 7.60902 13.7699 7.61551 13.767L7.63491 13.7584L7.6543 13.7494C7.66083 13.7463 7.66727 13.7432 7.67371 13.7401C7.68017 13.737 7.68674 13.7339 7.69311 13.7308C7.69968 13.7275 7.70604 13.7242 7.71252 13.7209C7.71899 13.7176 7.72553 13.7143 7.73191 13.711C7.73847 13.7075 7.74486 13.704 7.75132 13.7006C7.75783 13.6971 7.7643 13.6935 7.77071 13.69C7.77724 13.6864 7.7837 13.6827 7.79011 13.6791C7.79665 13.6753 7.80309 13.6715 7.80952 13.6677C7.81601 13.6639 7.82251 13.6601 7.82891 13.6562C7.83547 13.6522 7.84188 13.6482 7.84832 13.6442C7.85481 13.6401 7.86133 13.6361 7.86771 13.632C7.87427 13.6278 7.88066 13.6234 7.88711 13.6191C7.8936 13.6148 7.90014 13.6105 7.90652 13.6061C7.91309 13.6016 7.91947 13.597 7.92591 13.5925C7.9324 13.5878 7.93894 13.5832 7.9453 13.5785C7.95188 13.5737 7.95829 13.5689 7.96471 13.564C7.97124 13.559 7.97773 13.5541 7.98411 13.5491C7.99065 13.5439 7.99711 13.5387 8.00352 13.5335C8.01006 13.5282 8.01652 13.5228 8.02291 13.5174C8.02943 13.5119 8.03596 13.5064 8.04232 13.5008C8.04891 13.4951 8.05529 13.4892 8.06171 13.4834C8.06822 13.4774 8.07476 13.4715 8.08111 13.4655C8.0877 13.4593 8.09412 13.453 8.10052 13.4467C8.10707 13.4403 8.11353 13.4337 8.11991 13.4272C8.12643 13.4205 8.13297 13.4138 8.1393 13.4071C8.14591 13.4 8.1523 13.3928 8.15871 13.3856C8.1653 13.3783 8.17175 13.3708 8.17811 13.3634C8.18466 13.3557 8.19119 13.348 8.19752 13.3402C8.20409 13.332 8.21058 13.3239 8.21691 13.3157C8.22353 13.3071 8.22994 13.2985 8.2363 13.2898C8.24292 13.2807 8.24937 13.2716 8.25571 13.2624C8.26233 13.2528 8.26879 13.2432 8.27511 13.2335C8.28173 13.2233 8.2882 13.2131 8.2945 13.2027C8.30114 13.1918 8.30763 13.1809 8.31391 13.1698C8.32058 13.1581 8.32704 13.1463 8.3333 13.1344C8.34001 13.1216 8.34646 13.1088 8.35271 13.0959C8.35945 13.082 8.36589 13.068 8.37211 13.0539C8.37886 13.0386 8.38535 13.0232 8.39152 13.0076C8.39831 12.9904 8.40481 12.9731 8.41091 12.9557C8.41784 12.9359 8.42426 12.9159 8.43031 12.8957C8.43736 12.8721 8.44382 12.8483 8.44971 12.8242C8.45703 12.7944 8.46352 12.7642 8.46911 12.7337C8.47742 12.6883 8.48383 12.6422 8.4885 12.5954C8.49503 12.5303 8.4982 12.4639 8.4982 12.3965V10.0764H8.46911H8.44971H8.43031H8.41091H8.39152H8.37211H8.35271H8.3333H8.31391H8.2945H8.27511H8.25571H8.2363H8.21691H8.19752H8.17811H8.15871H8.1393H8.11991H8.10052H8.08111H8.06171H8.04232H8.02291H8.00352H7.98411H7.96471H7.9453H7.92591H7.90652H7.88711H7.86771H7.84832H7.82891H7.80952H7.79011H7.77071H7.75132H7.73191H7.71252H7.69311H7.67371H7.6543H7.63491H7.61551H7.59611H7.57671H7.55732H7.53791H7.51851H7.49911H7.47971H7.46032H7.44091H7.42151H7.4021H7.38271H7.36332H7.34391H7.32451H7.3051H7.28571H7.26632H7.24691H7.22751H7.20812H7.18871H7.16932H7.14991H7.13051H7.1111H7.09171H7.07232H7.05291H7.03351H7.01412H6.99471H6.97532H6.95591H6.93651H6.91712H6.89771H6.87832H6.85891H6.83951H6.82012H6.80071H6.78132L6.76661 12.3965C6.76661 12.4328 6.76501 12.4686 6.76191 12.5036C6.75794 12.5482 6.75145 12.5918 6.74251 12.6341C6.73699 12.6602 6.73051 12.6859 6.72312 12.7111C6.71722 12.7311 6.71078 12.7509 6.70371 12.7703C6.69768 12.7868 6.69119 12.8031 6.68432 12.8191C6.67818 12.8334 6.67172 12.8475 6.66491 12.8614C6.6587 12.874 6.65228 12.8865 6.64551 12.8988C6.63929 12.91 6.63279 12.9211 6.62612 12.9321C6.61985 12.9424 6.61339 12.9526 6.60671 12.9626C6.60043 12.972 6.59395 12.9813 6.58731 12.9905C6.581 12.9992 6.57457 13.0078 6.56792 13.0163C6.56161 13.0244 6.55512 13.0323 6.54851 13.0401C6.54218 13.0476 6.53572 13.055 6.52912 13.0623C6.52277 13.0694 6.51631 13.0763 6.50971 13.0832C6.50335 13.0898 6.4969 13.0963 6.49031 13.1027C6.48395 13.1089 6.47749 13.115 6.47092 13.121C6.46456 13.1269 6.45807 13.1326 6.45151 13.1382C6.44515 13.1437 6.43867 13.1491 6.43212 13.1545C6.42574 13.1597 6.41925 13.1648 6.41271 13.1698C6.40633 13.1747 6.39985 13.1795 6.39331 13.1843C6.38692 13.1889 6.38046 13.1935 6.37392 13.198C6.36753 13.2024 6.36107 13.2067 6.35451 13.211C6.34812 13.2152 6.34166 13.2192 6.33512 13.2233C6.32872 13.2272 6.32225 13.2311 6.31571 13.2349C6.30931 13.2386 6.30284 13.2423 6.29631 13.2459C6.28992 13.2494 6.28344 13.2529 6.27692 13.2563C6.27051 13.2596 6.26405 13.2629 6.25751 13.2661C6.2511 13.2693 6.24464 13.2724 6.23812 13.2755C6.23169 13.2785 6.22525 13.2815 6.21871 13.2844C6.21228 13.2872 6.20584 13.2901 6.19931 13.2928C6.19292 13.2955 6.18643 13.2981 6.17992 13.3007C6.17351 13.3032 6.16702 13.3057 6.16051 13.3081C6.15408 13.3105 6.14764 13.3129 6.14112 13.3152C6.13469 13.3174 6.12823 13.3197 6.12171 13.3218C6.1153 13.324 6.10882 13.3261 6.10231 13.3281C6.0959 13.3301 6.08941 13.332 6.08292 13.3339C6.07649 13.3358 6.07002 13.3377 6.06351 13.3394C6.05707 13.3412 6.05062 13.343 6.04412 13.3446C6.03769 13.3463 6.03121 13.3479 6.02471 13.3494C6.0183 13.3509 6.01182 13.3524 6.00531 13.3539C5.99889 13.3553 5.99243 13.3567 5.98592 13.358C5.97948 13.3594 5.97303 13.3607 5.96651 13.3619C5.96008 13.3631 5.95361 13.3642 5.94712 13.3654C5.94067 13.3665 5.93421 13.3676 5.92771 13.3687L5.90831 13.3716C5.90189 13.3725 5.89541 13.3734 5.88892 13.3742C5.88248 13.3751 5.87603 13.3759 5.86951 13.3767L5.85012 13.3788C5.84369 13.3795 5.83721 13.38 5.83072 13.3806C5.82426 13.3812 5.81782 13.3818 5.81131 13.3823C5.80489 13.3828 5.79841 13.3832 5.79192 13.3836C5.78548 13.384 5.779 13.3844 5.77251 13.3847C5.76605 13.3851 5.75962 13.3854 5.75312 13.3857C5.74669 13.3859 5.7402 13.3861 5.73372 13.3863L5.71431 13.3867C5.70788 13.3868 5.70141 13.3868 5.69492 13.3869L5.67551 13.3869L5.65611 13.3868L5.63672 13.3865L5.61731 13.3861L5.59792 13.3856L5.57851 13.385L5.55911 13.3842L5.53972 13.3833L5.52031 13.3823L5.50092 13.3812L5.48151 13.3799L5.46211 13.3786L5.44272 13.3771L5.42331 13.3754L5.40392 13.3737L5.38451 13.3719L5.36511 13.3699L5.34572 13.3678L5.32631 13.3656L5.30692 13.3633L5.28752 13.3608L5.26811 13.3583L5.24872 13.3556L5.22931 13.3528L5.20992 13.3499L5.19052 13.3469L5.17111 13.3438L5.15172 13.3406L5.13231 13.3372L5.11292 13.3337L5.09352 13.3302L5.07411 13.3265L5.05472 13.3227L5.03531 13.3188L5.01592 13.3148L4.99652 13.3107L4.97711 13.3064L4.95772 13.3021L4.93831 13.2976L4.91892 13.2931L4.89952 13.2884L4.88011 13.2836L4.86072 13.2788L4.84131 13.2738L4.82192 13.2687L4.80252 13.2635L4.78311 13.2582L4.76372 13.2528L4.74432 13.2473L4.72491 13.2417L4.70552 13.236L4.68611 13.2302L4.66672 13.2243L4.64732 13.2183L4.62791 13.2122L4.60852 13.206L4.58911 13.1997L4.56972 13.1933L4.55032 13.1868L4.53091 13.1802L4.51152 13.1735L4.49211 13.1667L4.47272 13.1598L4.45332 13.1529L4.43391 13.1458L4.41452 13.1386L4.39511 13.1314L4.37572 13.124L4.35632 13.1166L4.33691 13.109L4.31752 13.1014L4.29811 13.0937L4.27872 13.0859L4.25932 13.078L4.23991 13.07L4.22052 13.0619L4.20111 13.0537L4.18172 13.0455L4.16232 13.0371L4.14291 13.0287L4.12352 13.0202L4.10413 13.0116L4.08472 13.0029L4.06532 12.9941L4.04591 12.9852L4.02652 12.9763L4.00713 12.9673L3.98772 12.9581C3.97381 12.9516 3.95993 12.945 3.94604 12.9383Z" fill="#006CB9"/>
<path fill-rule="evenodd" clip-rule="evenodd" d="M9.55826 10.5833C9.54411 10.5947 9.5302 10.6061 9.5166 10.6177V7.9998C9.5166 7.86058 9.53099 7.72469 9.55826 7.59347C9.56412 7.5653 9.57061 7.53738 9.57765 7.50966C9.58369 7.48587 9.59018 7.46228 9.59706 7.43884C9.6032 7.41797 9.60967 7.39723 9.61647 7.37665C9.62267 7.35783 9.62911 7.33912 9.63586 7.32056C9.64211 7.30337 9.64856 7.28625 9.65527 7.26928C9.66155 7.25341 9.668 7.23762 9.67467 7.22194C9.68096 7.20716 9.68742 7.19248 9.69406 7.17787C9.70036 7.164 9.70687 7.15023 9.71347 7.13654C9.71978 7.12345 9.72627 7.11049 9.73286 7.09757C9.73919 7.08515 9.74568 7.07284 9.75227 7.06057C9.75862 7.04875 9.76509 7.037 9.77167 7.02533C9.77803 7.01402 9.78449 7.00276 9.79108 6.99159C9.79745 6.98074 9.80388 6.96995 9.81047 6.95923C9.81683 6.94888 9.82331 6.93859 9.82986 6.92837C9.83624 6.91842 9.84273 6.90858 9.84927 6.89876C9.85567 6.88915 9.86211 6.8796 9.86867 6.87011C9.87509 6.8608 9.8815 6.85149 9.88808 6.84231C9.89444 6.83341 9.90096 6.82466 9.90747 6.8159C9.91388 6.80726 9.92034 6.79867 9.92688 6.79014C9.93331 6.78174 9.93972 6.77333 9.94627 6.76504C9.95264 6.757 9.95919 6.74906 9.96568 6.74111C9.97209 6.73326 9.97855 6.72544 9.98508 6.71769C9.9915 6.71005 9.99795 6.70243 10.0045 6.6949C10.0109 6.68754 10.0174 6.68028 10.0239 6.67301C10.0303 6.66582 10.0367 6.65859 10.0433 6.65147C10.0497 6.64451 10.0562 6.63763 10.0627 6.63077C10.0691 6.62398 10.0756 6.61725 10.0821 6.61055C10.0885 6.60394 10.0949 6.59733 10.1015 6.59081C10.1079 6.58441 10.1144 6.57809 10.1209 6.57177C10.1273 6.56548 10.1337 6.55915 10.1403 6.55294C10.1467 6.54688 10.1532 6.54096 10.1597 6.53498C10.1661 6.52901 10.1725 6.52303 10.1791 6.51716C10.1855 6.5114 10.192 6.50574 10.1985 6.50006C10.2049 6.4944 10.2114 6.48875 10.2179 6.48318C10.2243 6.47769 10.2308 6.4723 10.2373 6.4669C10.2437 6.46154 10.2502 6.45618 10.2567 6.45088C10.2631 6.44567 10.2696 6.4405 10.2761 6.43537C10.2825 6.43026 10.289 6.42519 10.2955 6.42017C10.3019 6.41521 10.3084 6.4103 10.3149 6.40541C10.3213 6.40056 10.3278 6.39573 10.3343 6.39096C10.3407 6.38623 10.3472 6.38155 10.3537 6.3769C10.3601 6.37229 10.3666 6.36768 10.3731 6.36314C10.3795 6.35865 10.386 6.35422 10.3925 6.34978C10.3989 6.34539 10.4054 6.341 10.4119 6.33668C10.4183 6.33241 10.4248 6.32821 10.4313 6.324C10.4377 6.31981 10.4442 6.31562 10.4507 6.3115C10.4571 6.30744 10.4636 6.30347 10.4701 6.29947C10.4766 6.29549 10.483 6.29146 10.4895 6.28756C10.4959 6.28369 10.5024 6.27994 10.5089 6.27615C10.5154 6.27236 10.5218 6.26849 10.5283 6.26478C10.5347 6.26111 10.5412 6.2576 10.5477 6.254C10.5542 6.2504 10.5606 6.24677 10.5671 6.24325C10.5735 6.23976 10.58 6.2364 10.5865 6.23298C10.5929 6.22957 10.5994 6.22615 10.6059 6.2228L10.6253 6.213L10.6447 6.20341C10.6511 6.20028 10.6576 6.19711 10.6641 6.19404C10.6705 6.19099 10.677 6.18803 10.6835 6.18503C10.69 6.18206 10.6964 6.17899 10.7029 6.17608C10.7093 6.17318 10.7158 6.17046 10.7223 6.16765C10.7288 6.16483 10.7352 6.16197 10.7417 6.15922C10.7481 6.1565 10.7546 6.15386 10.7611 6.1512L10.7805 6.14333C10.787 6.14076 10.7934 6.13818 10.7999 6.13567C10.8063 6.13317 10.8128 6.13077 10.8193 6.12834C10.8258 6.12591 10.8322 6.1234 10.8387 6.12103C10.8451 6.1187 10.8517 6.11652 10.8581 6.11425C10.8646 6.11198 10.871 6.10967 10.8775 6.10747C10.8839 6.10526 10.8904 6.10315 10.8969 6.10102L10.9163 6.09476C10.9228 6.09272 10.9292 6.09062 10.9357 6.08862C10.9421 6.08665 10.9487 6.0848 10.9551 6.0829C10.9616 6.08098 10.968 6.07901 10.9745 6.07715C10.981 6.07531 10.9874 6.0736 10.9939 6.07183L11.0133 6.06659C11.0198 6.0649 11.0262 6.06317 11.0327 6.06154C11.0392 6.05992 11.0457 6.0584 11.0521 6.05684C11.0586 6.05527 11.065 6.05364 11.0715 6.05213C11.078 6.05065 11.0845 6.04925 11.0909 6.04783L11.1103 6.04364C11.1168 6.04228 11.1232 6.04087 11.1297 6.03958C11.1362 6.03828 11.1427 6.03711 11.1491 6.03588C11.1556 6.03465 11.162 6.03335 11.1685 6.03219L11.1879 6.02886L11.2073 6.02567C11.2138 6.02463 11.2202 6.02353 11.2267 6.02256C11.2332 6.02158 11.2397 6.02076 11.2461 6.01985C11.2526 6.01896 11.259 6.01801 11.2655 6.01716L11.2849 6.01475L11.3043 6.01254C11.3108 6.01182 11.3172 6.01099 11.3237 6.01033C11.3302 6.00968 11.3367 6.0092 11.3431 6.00861L11.3625 6.00691C11.369 6.00637 11.3755 6.00584 11.3819 6.00537C11.3884 6.00491 11.3949 6.00454 11.4013 6.00414C11.4078 6.00374 11.4142 6.00328 11.4207 6.00293C11.4272 6.00258 11.4337 6.00234 11.4401 6.00205L11.4595 6.00131C11.466 6.00109 11.4725 6.00075 11.4789 6.00059C11.4854 6.00043 11.4919 6.00045 11.4983 6.00035C11.5048 6.00026 11.5113 6.00014 11.5178 6.00011L11.5263 6H11.5371H11.5566H11.5759H11.5953H11.6148H11.6341H11.6536H11.6729H11.6924H11.7118H11.7312H11.7506H11.7699H11.7894H11.8088H11.8282H11.8476H11.867H11.8864H11.9058H11.9252H11.9446H11.964H11.9834H12.0028H12.0222H12.0416H12.061H12.0804H12.0998H12.1192H12.1386H12.158H12.1774H12.1968H12.2162H12.2356H12.255H12.2744H12.2938H12.3132H12.3326H12.352H12.3714H12.3908H12.4102H12.4296H12.449H12.4684H12.4878H12.5072H12.5266H12.546H12.5654H12.5848H12.6042H12.6236H12.643H12.6624H12.6818H12.7012H12.7206H12.74H12.7594H12.7788H12.7982H12.8176H12.837H12.8564H12.8758H12.8952H12.9146H12.934H12.9534H12.9728H12.9922H13.0116H13.031H13.0504H13.0698H13.0892H13.1086H13.128H13.1474H13.1668H13.1862H13.2056H13.225H13.2444H13.2638H13.2832H13.3026H13.322H13.3414H13.3608H13.3802H13.3996H13.419H13.4384H13.4578H13.4772H13.4966H13.5161H13.5354H13.5549H13.5742H13.5936H13.6131H13.6324H13.6519H13.6712H13.6907H13.7101H13.7295H13.7489H13.7682H13.7877H13.8071H13.8265H13.8459H13.8653H13.8847H13.9041H13.9235H13.9429H13.9623H13.9817H14.0011H14.0205H14.0399H14.0593H14.0787H14.0981H14.1175H14.1369H14.1563H14.1757H14.1951H14.2145H14.2339H14.2533H14.2727H14.2921H14.3115H14.3309H14.3503H14.3697H14.3891H14.4085H14.4279H14.4473H14.4667H14.4831V15.9983C14.4831 16.0852 14.4775 16.1708 14.4667 16.2548C14.4615 16.2953 14.4549 16.3353 14.4473 16.375C14.4415 16.4052 14.435 16.4351 14.4279 16.4648C14.4219 16.4898 14.4154 16.5147 14.4085 16.5393C14.4024 16.5609 14.3959 16.5824 14.3891 16.6037C14.3829 16.623 14.3764 16.6421 14.3697 16.6611C14.3635 16.6787 14.357 16.6962 14.3503 16.7136C14.344 16.7299 14.3376 16.746 14.3309 16.762C14.3246 16.7771 14.3181 16.7921 14.3115 16.807C14.3052 16.8212 14.2987 16.8352 14.2921 16.8492C14.2858 16.8625 14.2793 16.8758 14.2727 16.8889C14.2663 16.9016 14.2599 16.9141 14.2533 16.9266C14.2469 16.9386 14.2405 16.9506 14.2339 16.9625C14.2275 16.9739 14.2211 16.9854 14.2145 16.9967C14.2081 17.0076 14.2016 17.0185 14.1951 17.0293C14.1887 17.0398 14.1822 17.0501 14.1757 17.0605C14.1693 17.0706 14.1628 17.0806 14.1563 17.0905C14.1499 17.1003 14.1435 17.11 14.1369 17.1197C14.1305 17.129 14.124 17.1382 14.1175 17.1474C14.1111 17.1564 14.1046 17.1654 14.0981 17.1743C14.0917 17.183 14.0852 17.1918 14.0787 17.2004C14.0723 17.2088 14.0658 17.2172 14.0593 17.2255C14.0529 17.2337 14.0464 17.2418 14.0399 17.2498C14.0334 17.2578 14.027 17.2657 14.0205 17.2735C14.0141 17.2812 14.0076 17.2888 14.0011 17.2964C13.9947 17.3038 13.9882 17.3112 13.9817 17.3185C13.9752 17.3258 13.9688 17.3331 13.9623 17.3403C13.9559 17.3473 13.9493 17.3541 13.9429 17.3611C13.9364 17.3679 13.93 17.3748 13.9235 17.3816C13.9171 17.3883 13.9106 17.3948 13.9041 17.4013C13.8976 17.4078 13.8912 17.4142 13.8847 17.4206C13.8782 17.4269 13.8718 17.4332 13.8653 17.4395C13.8589 17.4456 13.8524 17.4516 13.8459 17.4577C13.8394 17.4637 13.833 17.4697 13.8265 17.4756C13.8201 17.4814 13.8135 17.4871 13.8071 17.4929C13.8006 17.4986 13.7942 17.5043 13.7877 17.51C13.7812 17.5155 13.7747 17.5208 13.7682 17.5263C13.7618 17.5317 13.7554 17.5372 13.7489 17.5425C13.7424 17.5477 13.7359 17.5528 13.7295 17.558C13.723 17.5632 13.7166 17.5684 13.7101 17.5734C13.7036 17.5784 13.6971 17.5833 13.6907 17.5882C13.6842 17.5931 13.6778 17.598 13.6712 17.6028C13.6648 17.6076 13.6583 17.6122 13.6519 17.6169C13.6454 17.6216 13.639 17.6263 13.6324 17.6309C13.626 17.6354 13.6195 17.6398 13.6131 17.6442C13.6066 17.6487 13.6002 17.6532 13.5936 17.6575C13.5872 17.6618 13.5807 17.666 13.5742 17.6702C13.5678 17.6744 13.5614 17.6787 13.5549 17.6829C13.5484 17.687 13.5419 17.6909 13.5354 17.6949C13.529 17.6989 13.5226 17.703 13.5161 17.7069C13.5096 17.7108 13.5031 17.7146 13.4966 17.7184C13.4902 17.7222 13.4837 17.7261 13.4772 17.7298C13.4708 17.7335 13.4643 17.7371 13.4578 17.7408L13.4384 17.7515L13.419 17.762L13.3996 17.7721C13.3932 17.7755 13.3867 17.7788 13.3802 17.7821C13.3738 17.7854 13.3673 17.7885 13.3608 17.7917C13.3544 17.7949 13.348 17.7981 13.3414 17.8012C13.335 17.8043 13.3285 17.8072 13.322 17.8102C13.3156 17.8132 13.3091 17.8163 13.3026 17.8192C13.2962 17.8221 13.2897 17.8249 13.2832 17.8278L13.2638 17.8362L13.2444 17.8444L13.225 17.8523C13.2186 17.8549 13.2121 17.8575 13.2056 17.8601C13.1992 17.8626 13.1927 17.8649 13.1862 17.8674C13.1798 17.8698 13.1733 17.8723 13.1668 17.8747C13.1604 17.8771 13.1539 17.8793 13.1474 17.8816L13.128 17.8884L13.1086 17.895C13.1022 17.8972 13.0957 17.8992 13.0892 17.9013C13.0827 17.9034 13.0763 17.9055 13.0698 17.9075C13.0634 17.9095 13.0569 17.9114 13.0504 17.9133L13.031 17.919L13.0116 17.9245C13.0052 17.9263 12.9987 17.928 12.9922 17.9297C12.9857 17.9315 12.9793 17.9333 12.9728 17.935C12.9664 17.9366 12.9599 17.9381 12.9534 17.9397C12.947 17.9412 12.9405 17.9428 12.934 17.9444L12.9146 17.9488L12.8952 17.953C12.8887 17.9544 12.8823 17.9559 12.8758 17.9572C12.8694 17.9585 12.8629 17.9597 12.8564 17.9609L12.837 17.9646L12.8176 17.9681C12.8112 17.9692 12.8047 17.9702 12.7982 17.9713C12.7917 17.9723 12.7853 17.9734 12.7788 17.9744C12.7724 17.9754 12.7659 17.9763 12.7594 17.9772L12.74 17.9799C12.7335 17.9808 12.7271 17.9817 12.7206 17.9825C12.7142 17.9833 12.7077 17.9839 12.7012 17.9847C12.6947 17.9854 12.6883 17.9862 12.6818 17.9869C12.6754 17.9875 12.6689 17.9881 12.6624 17.9887L12.643 17.9904C12.6365 17.991 12.6301 17.9916 12.6236 17.9921C12.6172 17.9926 12.6107 17.9929 12.6042 17.9933L12.5848 17.9946L12.5654 17.9956C12.559 17.9959 12.5525 17.9961 12.546 17.9963C12.5395 17.9966 12.5331 17.9969 12.5266 17.9971C12.5201 17.9972 12.5137 17.9973 12.5072 17.9974L12.4878 17.9977C12.4817 17.9977 12.4757 17.9979 12.4697 17.9979H12.4684H12.449H12.4296H12.4102H12.3908H12.3714H12.352H12.3326H12.3132H12.2938H12.2744H12.255H12.2356H12.2162H12.1968H12.1774H12.158H12.1386H12.1192H12.0998H12.0804H12.061H12.0416H12.0222H12.0028H11.9834H11.964H11.9446H11.9252H11.9058H11.8864H11.867H11.8476H11.8282H11.8088H11.7894H11.7699H11.7506H11.7312H11.7118H11.6924H11.6729H11.6536H11.6341H11.6148H11.5953H11.5759H11.5566H11.5371H11.5178H11.4983H11.4789H11.4595H11.4401H11.4207H11.4013H11.3819H11.3625H11.3431H11.3237H11.3043H11.2849H11.2655H11.2461H11.2267H11.2073H11.1879H11.1685H11.1491H11.1297H11.1103H11.0909H11.0715H11.0521H11.0327H11.0133H10.9939H10.9745H10.9551H10.9357H10.9163H10.8969H10.8775H10.8581H10.8387H10.8193H10.7999H10.7805H10.7611H10.7417H10.7223H10.7029H10.6835H10.6641H10.6447H10.6253H10.6059H10.5865H10.5671H10.5477H10.5283H10.5089H10.4895H10.4701H10.4507H10.4313H10.4119H10.3925H10.3731H10.3537H10.3343H10.3149H10.2955H10.2761H10.2567H10.2373H10.2179H10.1985H10.1791H10.1597H10.1403H10.1209H10.1015H10.0821H10.0627H10.0433H10.0239H10.0045H9.98508H9.96568H9.94627H9.92688H9.90747H9.88808H9.86867H9.84927H9.82986H9.81047H9.79108H9.77167H9.75227H9.73286H9.71347H9.69406H9.67467H9.65527H9.63586H9.61647H9.59706H9.57765H9.55826H9.5166V13.381C9.5302 13.3925 9.54411 13.404 9.55826 13.4153C9.56467 13.4205 9.57114 13.4256 9.57765 13.4307C9.58408 13.4357 9.59054 13.4407 9.59706 13.4457C9.6035 13.4506 9.60993 13.4555 9.61647 13.4604C9.62286 13.4651 9.62937 13.4698 9.63586 13.4745C9.64227 13.4791 9.64876 13.4838 9.65527 13.4883C9.6617 13.4929 9.66814 13.4974 9.67467 13.5019L9.69406 13.5151C9.70047 13.5194 9.70696 13.5237 9.71347 13.5279L9.73286 13.5405C9.73929 13.5446 9.74575 13.5487 9.75227 13.5528C9.75867 13.5568 9.76517 13.5608 9.77167 13.5647L9.79108 13.5765C9.79752 13.5803 9.80396 13.5841 9.81047 13.5879C9.81688 13.5917 9.82337 13.5954 9.82986 13.5991L9.84927 13.61L9.86867 13.6207L9.88808 13.6311C9.89452 13.6345 9.90095 13.638 9.90747 13.6414C9.91388 13.6447 9.92039 13.648 9.92688 13.6513L9.94627 13.6611L9.96568 13.6707L9.98508 13.68C9.99154 13.6831 9.99796 13.6862 10.0045 13.6892L10.0239 13.6981L10.0433 13.7069L10.0627 13.7154L10.0821 13.7238L10.1015 13.7321L10.1209 13.7401L10.1403 13.748L10.1597 13.7557L10.1791 13.7633L10.1985 13.7706C10.2049 13.7731 10.2114 13.7755 10.2179 13.7779L10.2373 13.7849C10.2437 13.7873 10.2502 13.7897 10.2567 13.792C10.2631 13.7942 10.2696 13.7964 10.2761 13.7987L10.2955 13.8054L10.3149 13.8118C10.3213 13.814 10.3278 13.8162 10.3343 13.8183C10.3407 13.8204 10.3472 13.8224 10.3537 13.8245L10.3731 13.8306L10.3925 13.8365L10.4119 13.8424L10.4313 13.8481L10.4507 13.8538L10.4701 13.8592L10.4895 13.8646L10.5089 13.8699L10.5283 13.875L10.5477 13.8801L10.5671 13.885L10.5865 13.8898L10.6059 13.8945L10.6253 13.8991L10.6447 13.9036L10.6641 13.908L10.6835 13.9123L10.7029 13.9165L10.7223 13.9206L10.7417 13.9246L10.7611 13.9286L10.7805 13.9324L10.7999 13.9361L10.8193 13.9398L10.8387 13.9433L10.8581 13.9468L10.8775 13.9502L10.8969 13.9535L10.9163 13.9567L10.9357 13.9599L10.9551 13.963L10.9745 13.9659L10.9939 13.9688L11.0133 13.9717L11.0327 13.9744L11.0521 13.9771L11.0715 13.9797L11.0909 13.9822L11.1103 13.9847L11.1297 13.987L11.1491 13.9894L11.1685 13.9916L11.1879 13.9937L11.2073 13.9959L11.2267 13.9979L11.2461 13.9999L11.2655 14.0018L11.2849 14.0036L11.3043 14.0054L11.3237 14.0071L11.3431 14.0087L11.3625 14.0104L11.3819 14.0119L11.4013 14.0133L11.4207 14.0148L11.4401 14.0161L11.4595 14.0174L11.4789 14.0187L11.4983 14.0198L11.5178 14.0209L11.5371 14.022L11.5566 14.0229L11.5759 14.0239L11.5953 14.0248L11.6148 14.0256L11.6341 14.0264L11.6536 14.0272L11.6729 14.0278L11.6924 14.0285L11.7118 14.0291L11.7312 14.0296L11.7506 14.0301L11.7699 14.0305L11.7894 14.0309L11.8088 14.0312L11.8282 14.0315L11.8476 14.0317L11.867 14.0319L11.8864 14.0321L11.9058 14.0322L11.9252 14.0322L11.9446 14.0322L11.964 14.0322L11.9834 14.0321L12.0028 14.0319L12.0222 14.0318L12.0416 14.0315L12.061 14.0313L12.0804 14.031L12.0998 14.0306L12.1192 14.0302L12.1386 14.0298L12.158 14.0293L12.1774 14.0288L12.1968 14.0283L12.2162 14.0277L12.2356 14.027L12.255 14.0264L12.2744 14.0257L12.2938 14.0249L12.3132 14.0241L12.3326 14.0233L12.3421 14.0229L12.352 14.0224L12.3714 14.0215L12.3908 14.0205L12.4102 14.0194L12.4296 14.0182L12.449 14.0171L12.4684 14.0158L12.4878 14.0144L12.5072 14.013L12.5266 14.0116L12.546 14.01L12.5654 14.0085L12.5848 14.0068L12.6042 14.0051L12.6236 14.0034L12.643 14.0016L12.6624 13.9997L12.6818 13.9978L12.7012 13.9959L12.7206 13.9938L12.74 13.9917L12.7594 13.9896L12.7788 13.9874L12.7982 13.9852L12.8176 13.9829L12.837 13.9806L12.8564 13.9783L12.8758 13.9758L12.8952 13.9734L12.9146 13.9709L12.934 13.9683L12.9534 13.9657L12.9728 13.9631L12.9922 13.9604L13.0116 13.9577L13.031 13.9549L13.0504 13.9521L13.0698 13.9492L13.0892 13.9463L13.1086 13.9434L13.128 13.9404L13.1474 13.9374L13.1668 13.9343L13.1862 13.9312L13.2056 13.9281L13.225 13.9249L13.2444 13.9217L13.2638 13.9184L13.2832 13.9151L13.3026 13.9118L13.322 13.9084L13.3414 13.905L13.3608 13.9015L13.3802 13.898L13.3996 13.8945L13.419 13.891L13.4384 13.8873L13.4578 13.8837L13.4772 13.88L13.4966 13.8763L13.5161 13.8725L13.5354 13.8687L13.5549 13.8649L13.5742 13.8611L13.5936 13.8571L13.6131 13.8532L13.6324 13.8492L13.6519 13.8452L13.6712 13.8411L13.6907 13.837L13.7101 13.8329L13.7295 13.8287L13.7489 13.8245L13.7682 13.8202L13.7877 13.8159L13.8071 13.8115L13.8265 13.8071L13.8459 13.8026L13.8653 13.7981L13.8847 13.7935L13.9041 13.7889L13.9234 13.7842V12.9383L13.9041 12.9478L13.8847 12.9573L13.8653 12.9668L13.8459 12.9761L13.8265 12.9854L13.8071 12.9946L13.7877 13.0036L13.7682 13.0126L13.7489 13.0215L13.7295 13.0303L13.7101 13.039L13.6907 13.0476L13.6712 13.056L13.6519 13.0644L13.6324 13.0727L13.6131 13.0809L13.5936 13.089L13.5742 13.097L13.5549 13.1049L13.5354 13.1127L13.5161 13.1203L13.4966 13.1279L13.4772 13.1354L13.4578 13.1427L13.4384 13.1499L13.419 13.1571L13.3996 13.1641L13.3802 13.171L13.3608 13.1778L13.3414 13.1845L13.322 13.1911L13.3026 13.1976L13.2832 13.204L13.2638 13.2102L13.2444 13.2164L13.225 13.2224L13.2056 13.2284L13.1862 13.2342L13.1668 13.2399L13.1474 13.2455L13.128 13.251L13.1086 13.2564L13.0892 13.2617L13.0698 13.2668L13.0504 13.2719L13.031 13.2768L13.0116 13.2817L12.9922 13.2864L12.9728 13.291L12.9534 13.2955L12.934 13.2999L12.9146 13.3042L12.8952 13.3084L12.8758 13.3125L12.8564 13.3164L12.837 13.3203L12.8176 13.3241L12.7982 13.3277L12.7788 13.3312L12.7594 13.3347L12.74 13.338L12.7206 13.3412L12.7012 13.3443L12.6818 13.3474L12.6624 13.3503L12.643 13.3531L12.6236 13.3558L12.6042 13.3584L12.5848 13.3609L12.5654 13.3633L12.546 13.3656L12.5266 13.3677L12.5072 13.3698L12.4878 13.3718L12.4684 13.3737L12.449 13.3755L12.4296 13.3772L12.4102 13.3787L12.3984 13.3797L12.3908 13.3802L12.3714 13.3815L12.352 13.3828L12.3326 13.3838L12.3132 13.3848L12.2938 13.3857L12.2744 13.3863L12.255 13.3869L12.2356 13.3873L12.2162 13.3876L12.1968 13.3879C12.1903 13.3879 12.1839 13.3878 12.1774 13.3878L12.158 13.3877L12.1386 13.3874L12.1192 13.387L12.0998 13.3865C12.0933 13.3863 12.0868 13.386 12.0804 13.3857C12.0739 13.3855 12.0674 13.3853 12.061 13.385L12.0416 13.3839L12.0222 13.3827L12.0028 13.3814L11.9834 13.3799C11.9769 13.3793 11.9704 13.3789 11.964 13.3783C11.9575 13.3777 11.951 13.377 11.9446 13.3764L11.9252 13.3744L11.9058 13.3722L11.8864 13.3699L11.867 13.3673L11.8476 13.3646C11.8411 13.3636 11.8346 13.3627 11.8282 13.3617C11.8217 13.3607 11.8152 13.3596 11.8088 13.3585C11.8023 13.3575 11.7958 13.3565 11.7894 13.3553C11.7828 13.3542 11.7764 13.3529 11.7699 13.3517C11.7635 13.3505 11.757 13.3494 11.7506 13.3481C11.744 13.3468 11.7376 13.3454 11.7312 13.3441C11.7247 13.3427 11.7182 13.3414 11.7118 13.34C11.7052 13.3386 11.6988 13.3371 11.6924 13.3356L11.6729 13.3311C11.6664 13.3295 11.66 13.3278 11.6536 13.3262C11.6471 13.3246 11.6406 13.3229 11.6341 13.3212C11.6276 13.3195 11.6212 13.3177 11.6148 13.3159C11.6083 13.3141 11.6018 13.3123 11.5953 13.3104C11.5888 13.3085 11.5824 13.3065 11.5759 13.3046C11.5695 13.3026 11.563 13.3006 11.5566 13.2985C11.55 13.2965 11.5436 13.2943 11.5371 13.2922C11.5307 13.29 11.5242 13.2879 11.5178 13.2856C11.5112 13.2834 11.5048 13.281 11.4983 13.2787C11.4919 13.2763 11.4854 13.274 11.4789 13.2716C11.4724 13.2691 11.466 13.2666 11.4595 13.264C11.4531 13.2615 11.4466 13.259 11.4401 13.2564C11.4336 13.2537 11.4272 13.2509 11.4207 13.2482C11.4142 13.2454 11.4077 13.2427 11.4013 13.2398C11.3948 13.2369 11.3884 13.2339 11.3819 13.2309C11.3754 13.2279 11.3689 13.2249 11.3625 13.2218C11.356 13.2187 11.3496 13.2155 11.3431 13.2123C11.3366 13.209 11.3302 13.2057 11.3237 13.2024C11.3172 13.199 11.3107 13.1957 11.3043 13.1922C11.2978 13.1887 11.2914 13.185 11.2849 13.1814C11.2784 13.1777 11.2719 13.1741 11.2655 13.1703C11.259 13.1665 11.2526 13.1626 11.2461 13.1587C11.2396 13.1547 11.2332 13.1507 11.2267 13.1466C11.2202 13.1425 11.2137 13.1384 11.2073 13.1342C11.2008 13.1299 11.1944 13.1254 11.1879 13.121C11.1814 13.1165 11.1749 13.1119 11.1685 13.1073C11.162 13.1027 11.1555 13.098 11.1491 13.0933C11.1426 13.0884 11.1361 13.0834 11.1297 13.0784C11.1232 13.0733 11.1167 13.0682 11.1103 13.063C11.1038 13.0577 11.0973 13.0524 11.0909 13.047C11.0844 13.0414 11.0779 13.0357 11.0715 13.03C11.065 13.0242 11.0585 13.0183 11.0521 13.0124C11.0456 13.0063 11.0391 13.0002 11.0327 12.994C11.0262 12.9877 11.0197 12.9814 11.0133 12.9749C11.0067 12.9682 11.0003 12.9614 10.9939 12.9545C10.9873 12.9475 10.9809 12.9404 10.9745 12.9332C10.9679 12.9258 10.9615 12.9183 10.9551 12.9108C10.9486 12.903 10.9421 12.8952 10.9357 12.8872C10.9291 12.879 10.9227 12.8707 10.9163 12.8622C10.9097 12.8535 10.9032 12.8448 10.8969 12.8359C10.8903 12.8266 10.8838 12.8172 10.8775 12.8077C10.8709 12.7978 10.8644 12.7878 10.8581 12.7777C10.8515 12.7671 10.845 12.7563 10.8387 12.7455C10.832 12.734 10.8256 12.7224 10.8193 12.7107C10.8126 12.6982 10.8062 12.6856 10.7999 12.6729C10.7932 12.6593 10.7867 12.6456 10.7805 12.6317C10.7738 12.6167 10.7673 12.6016 10.7611 12.5863C10.7543 12.5693 10.7479 12.552 10.7417 12.5345C10.7349 12.5152 10.7284 12.4955 10.7223 12.4756C10.7153 12.4524 10.7088 12.4289 10.7029 12.405C10.6956 12.3752 10.6891 12.3448 10.6835 12.3138C10.6751 12.2679 10.6686 12.2207 10.6641 12.1722C10.6589 12.1163 10.6562 12.0586 10.6562 11.9993C10.6562 11.9399 10.6589 11.8822 10.6641 11.8262C10.6686 11.7777 10.6751 11.7305 10.6835 11.6846C10.6891 11.6536 10.6956 11.6231 10.7029 11.5933C10.7088 11.5694 10.7153 11.5459 10.7223 11.5227C10.7284 11.5027 10.7349 11.4831 10.7417 11.4637C10.7479 11.4462 10.7543 11.4289 10.7611 11.412C10.7673 11.3966 10.7738 11.3815 10.7805 11.3665C10.7867 11.3526 10.7932 11.3388 10.7999 11.3253C10.8062 11.3125 10.8126 11.2999 10.8193 11.2875C10.8256 11.2758 10.832 11.2641 10.8387 11.2527C10.845 11.2418 10.8515 11.231 10.8581 11.2204C10.8644 11.2103 10.8709 11.2003 10.8775 11.1904C10.8838 11.1809 10.8903 11.1715 10.8969 11.1622C10.9032 11.1533 10.9097 11.1446 10.9163 11.1358C10.9227 11.1274 10.9291 11.1191 10.9357 11.1109C10.9421 11.1029 10.9486 11.0951 10.9551 11.0873C10.9615 11.0797 10.9679 11.0723 10.9745 11.0649C10.9809 11.0577 10.9873 11.0505 10.9939 11.0435C11.0003 11.0367 11.0067 11.0298 11.0133 11.0232C11.0197 11.0167 11.0262 11.0103 11.0327 11.004C11.0391 10.9978 11.0456 10.9917 11.0521 10.9856C11.0585 10.9797 11.065 10.9738 11.0715 10.968C11.0779 10.9623 11.0844 10.9566 11.0909 10.951C11.0973 10.9456 11.1038 10.9403 11.1103 10.935C11.1167 10.9298 11.1232 10.9247 11.1297 10.9196C11.1361 10.9146 11.1426 10.9096 11.1491 10.9047C11.1555 10.8999 11.162 10.8953 11.1685 10.8906C11.1749 10.886 11.1814 10.8815 11.1879 10.877C11.1944 10.8726 11.2008 10.8681 11.2073 10.8638C11.2137 10.8596 11.2202 10.8555 11.2267 10.8514C11.2332 10.8473 11.2396 10.8432 11.2461 10.8393C11.2526 10.8353 11.259 10.8315 11.2655 10.8276C11.2719 10.8239 11.2784 10.8202 11.2849 10.8166C11.2914 10.8129 11.2978 10.8093 11.3043 10.8058C11.3107 10.8023 11.3172 10.7989 11.3237 10.7955C11.3302 10.7922 11.3366 10.7889 11.3431 10.7856C11.3496 10.7824 11.356 10.7792 11.3625 10.7761C11.3689 10.773 11.3754 10.77 11.3819 10.767C11.3884 10.764 11.3948 10.761 11.4013 10.7581C11.4077 10.7553 11.4142 10.7525 11.4207 10.7498C11.4272 10.747 11.4336 10.7442 11.4401 10.7415C11.4466 10.7389 11.4531 10.7364 11.4595 10.7339C11.466 10.7313 11.4724 10.7288 11.4789 10.7263C11.4854 10.7239 11.4919 10.7216 11.4983 10.7192C11.5048 10.7169 11.5112 10.7145 11.5178 10.7123C11.5242 10.71 11.5307 10.7079 11.5371 10.7057C11.5436 10.7036 11.55 10.7014 11.5566 10.6993C11.563 10.6973 11.5695 10.6953 11.5759 10.6933C11.5824 10.6914 11.5888 10.6894 11.5953 10.6875L11.6148 10.682C11.6212 10.6802 11.6276 10.6784 11.6341 10.6767C11.6406 10.675 11.6471 10.6733 11.6536 10.6717C11.66 10.67 11.6664 10.6684 11.6729 10.6668L11.6924 10.6623C11.6988 10.6608 11.7052 10.6593 11.7118 10.6578C11.7182 10.6564 11.7247 10.6551 11.7312 10.6538C11.7376 10.6524 11.744 10.651 11.7506 10.6498C11.757 10.6485 11.7635 10.6474 11.7699 10.6462C11.7764 10.645 11.7828 10.6437 11.7894 10.6425C11.7958 10.6414 11.8023 10.6404 11.8088 10.6393C11.8152 10.6383 11.8217 10.6372 11.8282 10.6362L11.8476 10.6333L11.867 10.6305L11.8864 10.628L11.9058 10.6257L11.9252 10.6234L11.9446 10.6215C11.951 10.6208 11.9575 10.6201 11.964 10.6196C11.9704 10.619 11.9769 10.6185 11.9834 10.618L12.0028 10.6165L12.0222 10.6151L12.0416 10.614L12.061 10.6129C12.0674 10.6126 12.0739 10.6124 12.0804 10.6121C12.0868 10.6119 12.0933 10.6115 12.0998 10.6113L12.1192 10.6108L12.1386 10.6104L12.158 10.6101L12.1774 10.6101C12.1839 10.6101 12.1903 10.61 12.1968 10.61L12.2162 10.6102L12.2356 10.6105L12.255 10.6109L12.2744 10.6116L12.2938 10.6122L12.3132 10.6131L12.3326 10.6141L12.352 10.6151L12.3714 10.6164L12.3908 10.6177L12.3984 10.6182L12.4102 10.6191L12.4296 10.6207L12.449 10.6223L12.4684 10.6241L12.4878 10.6259L12.5072 10.6279L12.5266 10.63L12.546 10.6321L12.5654 10.6344L12.5848 10.6367L12.6042 10.6392L12.6236 10.6417L12.643 10.6444L12.6624 10.6472L12.6818 10.65L12.7012 10.653L12.7206 10.6561L12.74 10.6593L12.7594 10.6626L12.7788 10.666L12.7982 10.6695L12.8176 10.6731L12.837 10.6768L12.8564 10.6806L12.8758 10.6846L12.8952 10.6886L12.9146 10.6928L12.934 10.6971L12.9534 10.7014L12.9728 10.7059L12.9922 10.7105L13.0116 10.7152L13.031 10.72L13.0504 10.7249L13.0698 10.73L13.0892 10.7351L13.1086 10.7404L13.128 10.7457L13.1474 10.7512L13.1668 10.7568L13.1862 10.7625L13.2056 10.7683L13.225 10.7743L13.2444 10.7803L13.2638 10.7864L13.2832 10.7927L13.3026 10.7991L13.322 10.8056L13.3414 10.8122L13.3608 10.8189L13.3802 10.8257L13.3996 10.8327L13.419 10.8397L13.4384 10.8469L13.4578 10.8542L13.4772 10.8616L13.4966 10.869L13.5161 10.8766L13.5354 10.8843L13.5549 10.8922L13.5742 10.9001L13.5936 10.9082L13.6131 10.9163L13.6324 10.9245L13.6519 10.9329L13.6712 10.9414L13.6907 10.9499L13.7101 10.9586L13.7295 10.9673L13.7489 10.9762L13.7682 10.9852L13.7877 10.9942L13.8071 11.0034L13.8265 11.0126L13.8459 11.022L13.8653 11.0314L13.8847 11.0409L13.9041 11.0505L13.9234 11.0602V10.2137L13.9041 10.2089L13.8847 10.2043L13.8653 10.1997L13.8459 10.1952L13.8265 10.1907L13.8071 10.1863L13.7877 10.182L13.7682 10.1777L13.7489 10.1734L13.7295 10.1692L13.7101 10.165L13.6907 10.1609L13.6712 10.1567L13.6519 10.1527L13.6324 10.1487L13.6131 10.1447L13.5936 10.1407L13.5742 10.1368L13.5549 10.133L13.5354 10.1291L13.5161 10.1254L13.4966 10.1216L13.4772 10.1179L13.4578 10.1142L13.4384 10.1106L13.419 10.107L13.3996 10.1034L13.3802 10.0999L13.3608 10.0964L13.3414 10.0929L13.322 10.0895L13.3026 10.0862L13.2832 10.0828L13.2638 10.0795L13.2444 10.0763L13.225 10.0731L13.2056 10.0699L13.1862 10.0667L13.1668 10.0637L13.1474 10.0606L13.128 10.0576L13.1086 10.0546L13.0892 10.0517L13.0698 10.0488L13.0504 10.0459L13.031 10.0431L13.0116 10.0403L12.9922 10.0376L12.9728 10.0349L12.9534 10.0323L12.934 10.0297L12.9146 10.0271L12.8952 10.0247L12.8758 10.0222L12.8564 10.0198L12.837 10.0174L12.8176 10.0151L12.7982 10.0129L12.7788 10.0106L12.7594 10.0085L12.74 10.0064L12.7206 10.0043L12.7012 10.0023L12.6818 10.0003L12.6624 9.99842L12.643 9.99656L12.6236 9.99475L12.6042 9.99303L12.5848 9.99133L12.5654 9.9897L12.546 9.98813L12.5266 9.98661L12.5072 9.98519L12.4878 9.98376L12.4684 9.98247L12.449 9.98117L12.4296 9.98L12.4102 9.97885L12.3908 9.9778L12.3714 9.97679L12.352 9.97586L12.3421 9.9754L12.3326 9.975L12.3132 9.9742L12.2938 9.9734L12.2744 9.9726L12.255 9.97193L12.2356 9.97127L12.2162 9.9706L12.1968 9.97002L12.1774 9.96948L12.158 9.96895L12.1386 9.96845L12.1192 9.96805L12.0998 9.96767L12.0804 9.96727L12.061 9.96701L12.0416 9.96676L12.0222 9.9665L12.0028 9.96634L11.9834 9.96625L11.964 9.96613L11.9446 9.96609L11.9252 9.96612L11.9058 9.96615L11.8864 9.96621L11.867 9.96639L11.8476 9.96658L11.8282 9.96677L11.8088 9.96711L11.7894 9.96743L11.7699 9.96777L11.7506 9.96825L11.7312 9.96873L11.7118 9.96921L11.6924 9.96983L11.6729 9.97047L11.6536 9.97111L11.6341 9.97189L11.6148 9.97269L11.5953 9.97348L11.5759 9.97442L11.5566 9.97538L11.5371 9.97632L11.5178 9.97743L11.4983 9.97855L11.4789 9.97967L11.4595 9.98095L11.4401 9.98224L11.4207 9.98354L11.4013 9.98501L11.3819 9.98647L11.3625 9.98797L11.3431 9.9896L11.3237 9.99122L11.3043 9.99293L11.2849 9.99474L11.2655 9.99654L11.2461 9.99846L11.2267 10.0005L11.2073 10.0024L11.1879 10.0046L11.1685 10.0068L11.1491 10.009L11.1297 10.0113L11.1103 10.0137L11.0909 10.0162L11.0715 10.0187L11.0521 10.0213L11.0327 10.024L11.0133 10.0267L10.9939 10.0295L10.9745 10.0325L10.9551 10.0354L10.9357 10.0385L10.9163 10.0417L10.8969 10.0449L10.8775 10.0482L10.8581 10.0515L10.8387 10.0551L10.8193 10.0586L10.7999 10.0623L10.7805 10.066L10.7611 10.0698L10.7417 10.0738L10.7223 10.0778L10.7029 10.0819L10.6835 10.0861L10.6641 10.0904L10.6447 10.0948L10.6253 10.0993L10.6059 10.1039L10.5865 10.1086L10.5671 10.1135L10.5477 10.1184L10.5283 10.1234L10.5089 10.1286L10.4895 10.1338L10.4701 10.1392L10.4507 10.1447L10.4313 10.1503L10.4119 10.156L10.3925 10.1619L10.3731 10.1679L10.3537 10.174C10.3472 10.1761 10.3407 10.1781 10.3343 10.1802L10.3149 10.1866C10.3084 10.1888 10.3019 10.1909 10.2955 10.1931L10.2761 10.1998L10.2567 10.2065C10.2502 10.2088 10.2437 10.2112 10.2373 10.2136C10.2308 10.2159 10.2243 10.2182 10.2179 10.2206L10.1985 10.2279C10.192 10.2303 10.1855 10.2327 10.1791 10.2352L10.1597 10.2428L10.1403 10.2505L10.1209 10.2584L10.1015 10.2665L10.0821 10.2747L10.0627 10.2831L10.0433 10.2916L10.0239 10.3005L10.0045 10.3093C9.99796 10.3124 9.99154 10.3155 9.98508 10.3186L9.96568 10.3279L9.94627 10.3375L9.92688 10.3473C9.92039 10.3506 9.91388 10.3538 9.90747 10.3572C9.90095 10.3606 9.89452 10.364 9.88808 10.3675L9.86867 10.3779L9.84927 10.3886C9.84275 10.3922 9.83631 10.3959 9.82986 10.3996C9.82337 10.4032 9.81688 10.4069 9.81047 10.4107C9.80396 10.4145 9.79752 10.4183 9.79108 10.4221C9.78455 10.426 9.77809 10.4299 9.77167 10.4339C9.76517 10.4378 9.75867 10.4418 9.75227 10.4458C9.74575 10.4499 9.73929 10.454 9.73286 10.4581L9.71347 10.4707C9.70696 10.475 9.70047 10.4792 9.69406 10.4835L9.67467 10.4968C9.66814 10.5013 9.6617 10.5058 9.65527 10.5103C9.64876 10.5149 9.64227 10.5195 9.63586 10.5242C9.62937 10.5289 9.62286 10.5336 9.61647 10.5383C9.60993 10.5432 9.6035 10.5481 9.59706 10.553C9.59054 10.558 9.58408 10.563 9.57765 10.568C9.57114 10.5731 9.56467 10.5782 9.55826 10.5834V10.5833Z" fill="#E10238"/>
</svg>
