<svg width="24" height="24" viewBox="0 0 24 24" fill="none" xmlns="http://www.w3.org/2000/svg">
<rect x="0.151686" y="4.15169" width="23.6966" height="15.6966" rx="1.06181" fill="white" stroke="#909090" stroke-width="0.303373"/>
<path d="M18.2971 18C18.477 17.9999 18.6093 17.9277 18.6965 17.8135V17.9678H18.9719V16.1885H18.6965V16.8525C18.6093 16.7383 18.477 16.6661 18.2971 16.666C17.9421 16.666 17.6634 16.9454 17.6633 17.333C17.6633 17.721 17.9421 18 18.2971 18ZM10.9182 18C11.0376 18 11.1756 17.9625 11.2629 17.9014L11.1829 17.665C11.1009 17.7127 11.0112 17.7372 10.9397 17.7373C10.802 17.7373 10.7571 17.6518 10.7571 17.5244V16.9502H11.2073V16.6982H10.7571V16.3135H10.4788V16.6982H10.2219V16.9502H10.4788V17.5303C10.4789 17.8247 10.5927 18 10.9182 18ZM7.96802 18C8.14811 18 8.28109 17.9278 8.36841 17.8135V17.9678H8.6438V16.6982H8.36841V16.8525C8.28109 16.7382 8.14811 16.666 7.96802 16.666C7.6131 16.6661 7.33529 16.9455 7.33521 17.333C7.33521 17.7209 7.61305 17.9999 7.96802 18ZM9.45923 18C9.82468 18 10.0362 17.8275 10.0364 17.5859C10.0364 17.3628 9.86959 17.2459 9.59399 17.2061L9.46509 17.1865C9.34605 17.1707 9.25042 17.1474 9.25024 17.0625C9.25024 16.9695 9.34047 16.9131 9.49146 16.9131C9.65292 16.9132 9.80934 16.9748 9.88599 17.0225L10.0051 16.7988C9.87264 16.7113 9.6898 16.666 9.48853 16.666C9.16782 16.6661 8.96118 16.8209 8.96118 17.0732C8.96135 17.2801 9.11566 17.4075 9.39868 17.4473L9.52856 17.4658C9.67922 17.4871 9.75004 17.5271 9.75024 17.5986C9.75024 17.6968 9.65001 17.7529 9.46216 17.7529C9.2716 17.7529 9.13403 17.6918 9.04126 17.6201L8.91138 17.835C9.06235 17.9465 9.2528 18 9.45923 18ZM12.0852 18C12.2757 17.9999 12.4502 17.9522 12.6038 17.8223L12.469 17.6172C12.363 17.702 12.2278 17.7499 12.1008 17.75C11.9235 17.75 11.7617 17.668 11.7219 17.4395H12.6624C12.6651 17.4051 12.6672 17.3701 12.6672 17.333C12.6644 16.9373 12.4211 16.6662 12.0667 16.666C11.6956 16.666 11.4359 16.9372 11.4358 17.333C11.4358 17.7368 11.7062 18 12.0852 18ZM14.511 18C14.7015 17.9999 14.8285 17.9574 14.9661 17.8486L14.8342 17.625C14.7308 17.6995 14.6217 17.7393 14.5022 17.7393C14.2825 17.7364 14.1213 17.5774 14.1213 17.333C14.1214 17.0887 14.2825 16.9296 14.5022 16.9268C14.6217 16.9268 14.7308 16.9665 14.8342 17.041L14.9661 16.8174C14.8286 16.7087 14.7014 16.6661 14.511 16.666C14.103 16.666 13.8353 16.9478 13.8352 17.333L13.8469 17.4727C13.9037 17.7846 14.154 18 14.511 18ZM15.7405 18C15.9206 18 16.0532 17.9278 16.1409 17.8135V17.9678H16.4163V16.6982H16.1409V16.8525C16.0532 16.7382 15.9206 16.666 15.7405 16.666C15.3856 16.6661 15.1077 16.9455 15.1077 17.333C15.1077 17.721 15.3855 17.9999 15.7405 18ZM5.36157 17.2666C5.36157 17.0463 5.48303 16.9288 5.67114 16.9287C5.85394 16.9287 5.9465 17.0485 5.94653 17.2637V17.9707H6.22485V17.2666C6.22485 17.0462 6.35258 16.9287 6.5354 16.9287C6.72302 16.9289 6.81271 17.0486 6.81274 17.2637V17.9707H7.09106V17.1738C7.09106 16.8737 6.90045 16.6717 6.59302 16.6689C6.43145 16.6662 6.26441 16.7164 6.14771 16.8945C6.06039 16.7539 5.92302 16.669 5.72974 16.6689C5.59451 16.6689 5.46203 16.7087 5.35864 16.8574V16.7002H5.08325V17.9707H5.36157V17.2666ZM13.2268 17.2588C13.2268 17.0488 13.3165 16.9318 13.4963 16.9316C13.5521 16.9316 13.611 16.9398 13.6692 16.9639L13.7542 16.7031C13.6933 16.6791 13.6136 16.669 13.5579 16.6689C13.399 16.6689 13.2951 16.7429 13.2239 16.8545V16.7002H12.9514V17.9707H13.2268V17.2588ZM17.054 17.2588C17.054 17.0487 17.1444 16.9316 17.3245 16.9316C17.3802 16.9316 17.4382 16.9399 17.4963 16.9639L17.5813 16.7031C17.5204 16.6792 17.4407 16.6689 17.385 16.6689C17.2265 16.669 17.1235 16.7432 17.052 16.8545V16.7002H16.7786V17.9707H17.054V17.2588ZM11.7239 17.2236C11.7533 17.0403 11.8646 16.915 12.0608 16.915C12.238 16.9151 12.352 17.0273 12.3811 17.2236H11.7239ZM8.0022 17.7422C7.76398 17.7421 7.61841 17.5581 7.61841 17.335C7.61851 17.1119 7.76406 16.9288 8.0022 16.9287C8.22982 16.9287 8.38393 17.104 8.38403 17.335C8.38403 17.5661 8.22989 17.7422 8.0022 17.7422ZM15.7756 17.7422C15.5373 17.7422 15.3909 17.5581 15.3909 17.335C15.391 17.1119 15.5374 16.9287 15.7756 16.9287C16.0031 16.9289 16.1564 17.1041 16.1565 17.335C16.1565 17.5659 16.0031 17.742 15.7756 17.7422ZM18.3303 17.7422C18.0921 17.7421 17.9465 17.5581 17.9465 17.335C17.9466 17.1119 18.0922 16.9288 18.3303 16.9287C18.5582 16.9287 18.7121 17.104 18.7122 17.335C18.7122 17.5661 18.5583 17.7422 18.3303 17.7422Z" fill="#231F20"/>
<path d="M14.087 14.5414H9.91455V7.02124H14.087V14.5414Z" fill="#FF5F00"/>
<path d="M10.1787 10.7835C10.1787 9.258 10.8908 7.89913 11.9999 7.02341C11.1889 6.38305 10.1653 6.00084 9.05291 6.00084C6.41942 6.00084 4.28467 8.14208 4.28467 10.7835C4.28467 13.4249 6.41942 15.5662 9.05291 15.5662C10.1653 15.5662 11.1889 15.184 11.9999 14.5436C10.8908 13.6679 10.1787 12.309 10.1787 10.7835Z" fill="#EB001B"/>
<path d="M19.7155 10.7835C19.7155 13.4249 17.5808 15.5662 14.9473 15.5662C13.8349 15.5662 12.8113 15.184 12 14.5436C13.1094 13.6679 13.8216 12.309 13.8216 10.7835C13.8216 9.258 13.1094 7.89913 12 7.02341C12.8113 6.38305 13.8349 6.00084 14.9473 6.00084C17.5808 6.00084 19.7155 8.14208 19.7155 10.7835Z" fill="#F79E1B"/>
</svg>
