<svg width="24" height="24" viewBox="0 0 24 24" fill="none" xmlns="http://www.w3.org/2000/svg">
<rect x="0.151686" y="4.15169" width="23.6966" height="15.6966" rx="1.06181" fill="white" stroke="#909090" stroke-width="0.303373"/>
<path d="M10.7999 14.9131H9.3418L10.2538 9.10498H11.7119L10.7999 14.9131Z" fill="#15195A"/>
<path d="M16.0859 9.24728C15.7983 9.12976 15.3421 9 14.7781 9C13.3381 9 12.3241 9.79086 12.3179 10.9215C12.3059 11.7558 13.0439 12.2191 13.5958 12.4973C14.16 12.7815 14.3517 12.967 14.3517 13.2204C14.346 13.6095 13.8959 13.7888 13.4761 13.7888C12.8939 13.7888 12.582 13.6964 12.108 13.4799L11.916 13.3871L11.7119 14.6909C12.0539 14.8514 12.684 14.9938 13.3381 15C14.8681 15 15.8642 14.2214 15.876 13.0165C15.8818 12.3553 15.4921 11.8486 14.652 11.4347C14.142 11.1689 13.8297 10.9897 13.8297 10.7178C13.8357 10.4706 14.0939 10.2174 14.6696 10.2174C15.1436 10.205 15.4919 10.3224 15.7557 10.4398L15.8876 10.5015L16.0859 9.24728Z" fill="#15195A"/>
<path d="M19.8237 9.10229L21.0005 14.9099H19.6499C19.6459 14.8895 19.5173 14.2395 19.4761 14.0388H17.604C17.5507 14.1908 17.3058 14.8886 17.2983 14.9099H15.7681L17.9341 9.58374C18.0841 9.20725 18.3483 9.10235 18.6958 9.10229H19.8237ZM18.606 11.2273C18.6002 11.2434 18.1433 12.5207 18.0239 12.8523H19.2358C19.1761 12.5631 18.9022 11.1833 18.8999 11.1716L18.7983 10.6707C18.7267 10.8859 18.6012 11.2362 18.606 11.2273Z" fill="#15195A"/>
<path d="M5.37012 9.10229C5.68805 9.11455 5.94632 9.21967 6.03027 9.59058L6.54004 12.2595L6.69629 13.0632L8.12402 9.10229H9.66602L7.37402 14.9041H5.83203L4.53223 9.85815C4.08377 9.58809 3.57226 9.3702 3 9.21948L3.02441 9.10229H5.37012Z" fill="#15195A"/>
</svg>
