<svg width="24" height="24" viewBox="0 0 24 24" fill="none" xmlns="http://www.w3.org/2000/svg">
<path d="M8.00179 22C7.45162 22 6.98082 21.8043 6.58937 21.413C6.19725 21.021 6.00119 20.55 6.00119 20C6.00119 19.45 6.19725 18.979 6.58937 18.587C6.98082 18.1957 7.45162 18 8.00179 18C8.55195 18 9.02276 18.1957 9.41421 18.587C9.80632 18.979 10.0024 19.45 10.0024 20C10.0024 20.55 9.80632 21.021 9.41421 21.413C9.02276 21.8043 8.55195 22 8.00179 22ZM18.0048 22C17.4546 22 16.9838 21.8043 16.5923 21.413C16.2002 21.021 16.0042 20.55 16.0042 20C16.0042 19.45 16.2002 18.979 16.5923 18.587C16.9838 18.1957 17.4546 18 18.0048 18C18.5549 18 19.0261 18.1957 19.4182 18.587C19.8096 18.979 20.0054 19.45 20.0054 20C20.0054 20.55 19.8096 21.021 19.4182 21.413C19.0261 21.8043 18.5549 22 18.0048 22ZM7.15153 6L9.55225 11H16.5543L19.3052 6H7.15153ZM6.20125 4H20.9556C21.4058 4 21.7142 4.16667 21.8809 4.5C22.0476 4.83333 22.0393 5.18333 21.8559 5.55L18.3049 11.95C18.1215 12.2833 17.8797 12.5417 17.5796 12.725C17.2795 12.9083 16.9378 13 16.5543 13H9.10211L8.00179 15H20.0054V17H8.00179C7.25156 17 6.68473 16.6707 6.30128 16.012C5.91783 15.354 5.90116 14.7 6.25127 14.05L7.60167 11.6L4.0006 4H2V2H5.25097L6.20125 4Z" fill="black"/>
</svg>
