<svg width="24" height="24" viewBox="0 0 24 24" fill="none" xmlns="http://www.w3.org/2000/svg">
<path d="M12.5113 23.4582C4.60172 23.4582 2.4884 15.213 3.44367 9.8107C3.48525 9.57557 3.79345 9.50784 3.92775 9.70527C4.34362 10.3165 4.7137 11.1994 5.32687 11.1228C6.24848 11.0076 6.88697 2.8753 12.3491 0.587102C12.5224 0.514492 12.7038 0.652258 12.6847 0.839195C12.4147 3.48918 14.0057 7.28301 16.8246 7.28301C18.4404 7.28301 19.546 5.99338 20.0985 4.69823C20.2663 4.30481 20.8411 4.3544 20.9374 4.77116C21.9232 9.04063 24.5585 23.4582 12.5113 23.4582Z" fill="#FF3A55"/>
<path d="M9.73868 15.5076C9.92468 15.3513 10.2071 15.4586 10.2493 15.6978C10.3481 16.2576 10.673 17.2197 11.7389 17.2197C13.021 17.2197 13.8911 13.6917 14.1193 12.6542C14.1568 12.4835 14.3232 12.3675 14.4945 12.4024C17.6986 13.0538 19.2565 23.4582 12.2115 23.4582C7.08284 23.4582 8.24473 16.7626 9.73868 15.5076ZM18.494 4.24011C18.607 3.35689 16.9947 5.77259 16.9947 5.77259C16.9947 5.77259 18.2239 6.35319 18.494 4.24011ZM2.24839 17.4121C2.28237 17.0361 1.79867 16.0294 1.71303 16.428C1.50804 17.3816 2.2144 17.7881 2.24839 17.4121Z" fill="#FFBBB0"/>
<path d="M15.149 16.3406C15.0289 15.8395 14.598 17.0034 14.6521 17.4775C14.7063 17.9515 15.4364 17.5394 15.149 16.3406Z" fill="#FFE0D7"/>
</svg>
